<svg xmlns="http://www.w3.org/2000/svg" xmlns:xlink="http://www.w3.org/1999/xlink" width="80" height="80" viewBox="0 0 80 80">
  <defs>
    <style>
      .cls-1 {
        fill: none;
        stroke: #4935b2;
      }

      .cls-2 {
        fill: #f7f7f7;
      }

      .cls-3 {
        clip-path: url(#clip-path);
      }

      .cls-4 {
        fill: #4935b2;
      }
    </style>
    <clipPath id="clip-path">
      <rect id="사각형_280906" data-name="사각형 280906" class="cls-1" width="42" height="42" transform="translate(-0.038)"/>
    </clipPath>
  </defs>
  <g id="그룹_384065" data-name="그룹 384065" transform="translate(651 -3223)">
    <circle id="타원_39" data-name="타원 39" class="cls-2" cx="40" cy="40" r="40" transform="translate(-651 3223)"/>
    <g id="그룹_384038" data-name="그룹 384038" transform="translate(-629.962 3244.061)">
      <g id="그룹_384037" data-name="그룹 384037" class="cls-3" transform="translate(-2 -2.061)">
        <path id="패스_7905" data-name="패스 7905" class="cls-4" d="M21.14,46.622a21.506,21.506,0,0,1-11.406-3.1,19.972,19.972,0,0,1-6.38-6.439A22.86,22.86,0,0,1,.42,29.9c-.643-2.955-.539-5.552.272-6.776,1.256-1.9,6.016-3.382,10.836-3.382a22.312,22.312,0,0,1,11.759,3.218,20.693,20.693,0,0,1,6.546,6.552,22.532,22.532,0,0,1,2.989,7.208c.6,2.779.5,5.14-.277,6.316-.829,1.253-2.981,2.1-4.189,2.5A23.906,23.906,0,0,1,21.14,46.622ZM11.528,21.739a21.069,21.069,0,0,0-6.231.909,6.127,6.127,0,0,0-2.938,1.578c-.328.5-.614,2.357.015,5.247a19.581,19.581,0,0,0,8.417,12.352,19.665,19.665,0,0,0,10.349,2.8,21.855,21.855,0,0,0,6.595-1,6.654,6.654,0,0,0,3.142-1.7c.312-.472.567-2.135-.01-4.786a20.133,20.133,0,0,0-8.638-12.487A20.316,20.316,0,0,0,11.528,21.739Z" transform="translate(1.815 -6.391)"/>
        <path id="선_29" data-name="선 29" class="cls-4" d="M0,12.819a1,1,0,0,1-.551-.166,1,1,0,0,1-.282-1.386L6.994-.552A1,1,0,0,1,8.38-.834,1,1,0,0,1,8.661.552L.834,12.371A1,1,0,0,1,0,12.819Z" transform="translate(4.238 14.601)"/>
        <path id="선_30" data-name="선 30" class="cls-4" d="M0,12.819a1,1,0,0,1-.551-.166,1,1,0,0,1-.282-1.386L6.994-.552A1,1,0,0,1,8.38-.834,1,1,0,0,1,8.661.552L.834,12.371A1,1,0,0,1,0,12.819Z" transform="translate(24.585 27.278)"/>
        <path id="선_31" data-name="선 31" class="cls-4" d="M12.408,8.732a1,1,0,0,1-.528-.151L-.529.849A1,1,0,0,1-.849-.529,1,1,0,0,1,.529-.849L12.938,6.883a1,1,0,0,1-.53,1.849Z" transform="translate(12.121 22.983)"/>
        <path id="선_32" data-name="선 32" class="cls-4" d="M0,4.578a1,1,0,0,1-.551-.166A1,1,0,0,1-.834,3.026L1.536-.552A1,1,0,0,1,2.922-.834,1,1,0,0,1,3.2.552L.834,4.13A1,1,0,0,1,0,4.578Z" transform="translate(12.557 22.204)"/>
        <path id="선_33" data-name="선 33" class="cls-4" d="M0,4.578a1,1,0,0,1-.551-.166A1,1,0,0,1-.834,3.026L1.536-.552A1,1,0,0,1,2.922-.834,1,1,0,0,1,3.2.552L.834,4.13A1,1,0,0,1,0,4.578Z" transform="translate(14.849 23.632)"/>
        <path id="선_34" data-name="선 34" class="cls-4" d="M0,4.578a1,1,0,0,1-.551-.166A1,1,0,0,1-.834,3.026L1.536-.552A1,1,0,0,1,2.922-.834,1,1,0,0,1,3.2.552L.834,4.13A1,1,0,0,1,0,4.578Z" transform="translate(17.141 25.06)"/>
        <path id="선_35" data-name="선 35" class="cls-4" d="M0,4.578a1,1,0,0,1-.551-.166A1,1,0,0,1-.834,3.026L1.536-.552A1,1,0,0,1,2.922-.834,1,1,0,0,1,3.2.552L.834,4.13A1,1,0,0,1,0,4.578Z" transform="translate(19.432 26.488)"/>
        <path id="선_36" data-name="선 36" class="cls-4" d="M0,4.578a1,1,0,0,1-.551-.166A1,1,0,0,1-.834,3.026L1.536-.552A1,1,0,0,1,2.922-.834,1,1,0,0,1,3.2.552L.834,4.13A1,1,0,0,1,0,4.578Z" transform="translate(21.724 27.916)"/>
        <path id="패스_7906" data-name="패스 7906" class="cls-4" d="M43.776,24.955a1,1,0,0,1-.9-.571,18.337,18.337,0,0,1-1.715-7.492A16.352,16.352,0,0,1,42.576,10.2a16.768,16.768,0,0,1,3.083-4.647A15.59,15.59,0,0,0,35.69,2a1,1,0,1,1,0-2A17.56,17.56,0,0,1,47.8,4.78a1,1,0,0,1,0,1.454,14.545,14.545,0,0,0-4.646,10.657,16.478,16.478,0,0,0,1.521,6.633,1,1,0,0,1-.9,1.43Z" transform="translate(-11.824 1.731)"/>
        <path id="패스_7907" data-name="패스 7907" class="cls-4" d="M28.427,15.93a1,1,0,0,1-1-1V2.031a15.569,15.569,0,0,0-9.537,4.016,1,1,0,0,1-1.347-1.479A17.6,17.6,0,0,1,28.427,0a1,1,0,0,1,1,1V14.93A1,1,0,0,1,28.427,15.93Z" transform="translate(-4.56 1.731)"/>
        <path id="패스_7908" data-name="패스 7908" class="cls-4" d="M52.349,33.5a1,1,0,0,1-.549-1.836c3.266-2.14,5.824-7.245,5.824-11.622A14.547,14.547,0,0,0,52.979,9.385a1,1,0,1,1,1.373-1.454A16.845,16.845,0,0,1,58.2,13.352a16.354,16.354,0,0,1,1.419,6.69,17.339,17.339,0,0,1-1.836,7.424A14.776,14.776,0,0,1,52.9,33.337,1,1,0,0,1,52.349,33.5Z" transform="translate(-18.373 -1.42)"/>
        <path id="패스_7909" data-name="패스 7909" class="cls-4" d="M18.872,16.992a1,1,0,0,1-.967-.747A14.709,14.709,0,0,0,14.2,9.71a14.71,14.71,0,0,0-3.691,6.479,1,1,0,1,1-1.933-.513,16.767,16.767,0,0,1,4.951-8.1,1,1,0,0,1,1.347,0,16.767,16.767,0,0,1,4.967,8.159,1,1,0,0,1-.968,1.253Z" transform="translate(-1.543 -1.281)"/>
        <path id="선_37" data-name="선 37" class="cls-4" d="M13.76,1H0A1,1,0,0,1-1,0,1,1,0,0,1,0-1H13.76a1,1,0,0,1,1,1A1,1,0,0,1,13.76,1Z" transform="translate(26.491 18.622)"/>
      </g>
    </g>
  </g>
</svg>
