<svg xmlns="http://www.w3.org/2000/svg" width="40" height="40" viewBox="0 0 40 40">
  <defs>
    <style>
      .cls-1 {
        fill: #6045e6;
      }

      .cls-2 {
        fill: #fff;
      }
    </style>
  </defs>
  <g id="그룹_383540" data-name="그룹 383540" transform="translate(-320 -172)">
    <rect id="사각형_280693" data-name="사각형 280693" class="cls-1" width="40" height="40" rx="20" transform="translate(320 172)"/>
    <g id="그룹_383539" data-name="그룹 383539">
      <path id="타원_14" data-name="타원 14" class="cls-2" d="M5,2.1A2.9,2.9,0,1,0,7.9,5,2.9,2.9,0,0,0,5,2.1M5,0A5,5,0,1,1,0,5,5,5,0,0,1,5,0Z" transform="translate(329 181)"/>
      <path id="타원_15" data-name="타원 15" class="cls-2" d="M5,2.1A2.9,2.9,0,1,0,7.9,5,2.9,2.9,0,0,0,5,2.1M5,0A5,5,0,1,1,0,5,5,5,0,0,1,5,0Z" transform="translate(341 181)"/>
      <path id="타원_16" data-name="타원 16" class="cls-2" d="M5,2.1A2.9,2.9,0,1,0,7.9,5,2.9,2.9,0,0,0,5,2.1M5,0A5,5,0,1,1,0,5,5,5,0,0,1,5,0Z" transform="translate(341 193)"/>
      <path id="타원_17" data-name="타원 17" class="cls-2" d="M5,2.1A2.9,2.9,0,1,0,7.9,5,2.9,2.9,0,0,0,5,2.1M5,0A5,5,0,1,1,0,5,5,5,0,0,1,5,0Z" transform="translate(329 193)"/>
    </g>
  </g>
</svg>
