<svg xmlns="http://www.w3.org/2000/svg" xmlns:xlink="http://www.w3.org/1999/xlink" width="80" height="80" viewBox="0 0 80 80">
  <defs>
    <style>
      .cls-1 {
        fill: none;
        stroke: #4935b2;
      }

      .cls-2 {
        fill: #f7f7f7;
      }

      .cls-3 {
        clip-path: url(#clip-path);
      }

      .cls-4 {
        fill: #4935b2;
      }

      .cls-5 {
        clip-path: url(#clip-path-2);
      }
    </style>
    <clipPath id="clip-path">
      <rect id="사각형_280911" data-name="사각형 280911" class="cls-1" width="40" height="41"/>
    </clipPath>
    <clipPath id="clip-path-2">
      <rect id="사각형_280912" data-name="사각형 280912" class="cls-1" width="42" height="42"/>
    </clipPath>
  </defs>
  <g id="그룹_384068" data-name="그룹 384068" transform="translate(651 -3499)">
    <circle id="타원_42" data-name="타원 42" class="cls-2" cx="40" cy="40" r="40" transform="translate(-651 3499)"/>
    <g id="그룹_384048" data-name="그룹 384048" transform="translate(-631 3519)">
      <g id="그룹_384045" data-name="그룹 384045" transform="translate(0 0)">
        <g id="그룹_384044" data-name="그룹 384044" class="cls-3">
          <path id="사각형_280910" data-name="사각형 280910" class="cls-4" d="M0-1H33.9a1,1,0,0,1,1,1V3.926a1,1,0,0,1-1,1H0a1,1,0,0,1-1-1V0A1,1,0,0,1,0-1ZM32.9,1H1V2.926H32.9Z" transform="translate(3.315 36.42)"/>
        </g>
      </g>
      <path id="선_38" data-name="선 38" class="cls-4" d="M0,9.251a1,1,0,0,1-1-1V0A1,1,0,0,1,0-1,1,1,0,0,1,1,0V8.251A1,1,0,0,1,0,9.251Z" transform="translate(25.235 27.884)"/>
      <path id="선_39" data-name="선 39" class="cls-4" d="M0,9.251a1,1,0,0,1-1-1V0A1,1,0,0,1,0-1,1,1,0,0,1,1,0V8.251A1,1,0,0,1,0,9.251Z" transform="translate(15.292 27.884)"/>
      <g id="그룹_384047" data-name="그룹 384047" transform="translate(-1 -1)">
        <g id="그룹_384046" data-name="그룹 384046" class="cls-5">
          <path id="패스_7930" data-name="패스 7930" class="cls-4" d="M44.322,11.892H25a1,1,0,0,1-1-1V5a1,1,0,0,1,1-1H44.322a4,4,0,0,1,4.051,3.946A4,4,0,0,1,44.322,11.892ZM26,9.892H44.322a2,2,0,0,0,2.051-1.946A2,2,0,0,0,44.322,6H26Z" transform="translate(-7.051 -0.75)"/>
          <path id="선_40" data-name="선 40" class="cls-4" d="M0,10.71a1,1,0,0,1-.706-.292A1,1,0,0,1-.708,9L8.967-.706a1,1,0,0,1,1.414,0,1,1,0,0,1,0,1.414L.708,10.416A1,1,0,0,1,0,10.71Z" transform="translate(22.737 10.578)"/>
          <path id="패스_7931" data-name="패스 7931" class="cls-4" d="M38.188,28.878a1,1,0,0,1-.693-1.721L49.7,15.412v-2.1a1,1,0,0,1,2,0v2.525a1,1,0,0,1-.307.721L38.881,28.6A1,1,0,0,1,38.188,28.878Z" transform="translate(-11.298 -3.621)"/>
          <path id="패스_7932" data-name="패스 7932" class="cls-4" d="M37.294,35.232a1,1,0,0,1-.687-1.727l12.1-11.441a2.232,2.232,0,0,0,.706-1.612V17a1,1,0,0,1,2,0v3.452a4.24,4.24,0,0,1-1.332,3.066l-12.1,11.44A1,1,0,0,1,37.294,35.232Z" transform="translate(-11.01 -4.894)"/>
          <path id="패스_7933" data-name="패스 7933" class="cls-4" d="M6.153,0h5.017a3.67,3.67,0,0,1,3.712,3.618V8.855a3.67,3.67,0,0,1-3.712,3.618H6.1a6.57,6.57,0,0,1-2.353-.434L.643,10.853A1,1,0,0,1,0,9.919V7.546a1,1,0,0,1,1-1H4.746V5.928H1a1,1,0,0,1-1-1V2.637a1,1,0,0,1,.627-.928L3.693.475A6.562,6.562,0,0,1,6.153,0Zm5.017,10.474a1.669,1.669,0,0,0,1.712-1.618V3.618A1.669,1.669,0,0,0,11.169,2H6.153a4.571,4.571,0,0,0-1.713.33L2,3.312v.616H5.746a1,1,0,0,1,1,1V7.546a1,1,0,0,1-1,1H2v.685l2.463.941a4.577,4.577,0,0,0,1.639.3Z" transform="translate(0.678 0.632)"/>
          <path id="패스_7934" data-name="패스 7934" class="cls-4" d="M27.1,41.681a6.676,6.676,0,1,1,6.876-6.674A6.785,6.785,0,0,1,27.1,41.681Zm0-11.347a4.678,4.678,0,1,0,4.876,4.673A4.783,4.783,0,0,0,27.1,30.334Z" transform="translate(-5.834 -9.154)"/>
          <path id="패스_7935" data-name="패스 7935" class="cls-4" d="M28.923,39.928a2.965,2.965,0,1,1,3.034-2.964A3,3,0,0,1,28.923,39.928Zm0-3.928a.966.966,0,1,0,1.034.964A1,1,0,0,0,28.923,36Z" transform="translate(-7.659 -11.111)"/>
          <path id="패스_7936" data-name="패스 7936" class="cls-4" d="M52.234,10.642a1.655,1.655,0,1,1,1.678-1.655A1.668,1.668,0,0,1,52.234,10.642Z" transform="translate(-15.603 -1.901)"/>
          <path id="선_41" data-name="선 41" class="cls-4" d="M3.39,1H0A1,1,0,0,1-1,0,1,1,0,0,1,0-1H3.39a1,1,0,0,1,1,1A1,1,0,0,1,3.39,1Z" transform="translate(14.559 5.559)"/>
          <path id="선_42" data-name="선 42" class="cls-4" d="M3.39,1H0A1,1,0,0,1-1,0,1,1,0,0,1,0-1H3.39a1,1,0,0,1,1,1A1,1,0,0,1,3.39,1Z" transform="translate(14.559 8.178)"/>
          <path id="선_43" data-name="선 43" class="cls-4" d="M0,4.928a1,1,0,0,1-1-1V0A1,1,0,0,1,0-1,1,1,0,0,1,1,0V3.928A1,1,0,0,1,0,4.928Z" transform="translate(4.315 37.418)"/>
          <path id="선_44" data-name="선 44" class="cls-4" d="M0,4.928a1,1,0,0,1-1-1V0A1,1,0,0,1,0-1,1,1,0,0,1,1,0V3.928A1,1,0,0,1,0,4.928Z" transform="translate(11.094 37.418)"/>
          <path id="선_45" data-name="선 45" class="cls-4" d="M0,4.928a1,1,0,0,1-1-1V0A1,1,0,0,1,0-1,1,1,0,0,1,1,0V3.928A1,1,0,0,1,0,4.928Z" transform="translate(17.874 37.418)"/>
          <path id="선_46" data-name="선 46" class="cls-4" d="M0,4.928a1,1,0,0,1-1-1V0A1,1,0,0,1,0-1,1,1,0,0,1,1,0V3.928A1,1,0,0,1,0,4.928Z" transform="translate(24.653 37.418)"/>
          <path id="선_47" data-name="선 47" class="cls-4" d="M0,4.928a1,1,0,0,1-1-1V0A1,1,0,0,1,0-1,1,1,0,0,1,1,0V3.928A1,1,0,0,1,0,4.928Z" transform="translate(31.433 37.418)"/>
          <path id="선_48" data-name="선 48" class="cls-4" d="M0,6.892a1,1,0,0,1-1-1V0A1,1,0,0,1,0-1,1,1,0,0,1,1,0V5.892A1,1,0,0,1,0,6.892Z" transform="translate(20.661 4.25)"/>
        </g>
      </g>
    </g>
  </g>
</svg>
