<svg xmlns="http://www.w3.org/2000/svg" xmlns:xlink="http://www.w3.org/1999/xlink" width="80" height="80" viewBox="0 0 80 80">
  <defs>
    <style>
      .cls-1 {
        fill: none;
        stroke: #4935b2;
      }

      .cls-2 {
        fill: #f7f7f7;
      }

      .cls-3 {
        clip-path: url(#clip-path);
      }

      .cls-4 {
        fill: #4935b2;
      }
    </style>
    <clipPath id="clip-path">
      <rect id="사각형_280909" data-name="사각형 280909" class="cls-1" width="42" height="34" transform="translate(-1 -1)"/>
    </clipPath>
  </defs>
  <g id="그룹_384067" data-name="그룹 384067" transform="translate(651 -3406)">
    <circle id="타원_41" data-name="타원 41" class="cls-2" cx="40" cy="40" r="40" transform="translate(-651 3406)"/>
    <g id="그룹_384043" data-name="그룹 384043" transform="translate(-631 3429.831)">
      <g id="그룹_384042" data-name="그룹 384042" class="cls-3" transform="translate(0 0.169)">
        <path id="패스_7921" data-name="패스 7921" class="cls-4" d="M6.029,45.564a3.232,3.232,0,0,1-3.154-3.3V38a1,1,0,0,1,2,0v4.267a1.233,1.233,0,0,0,1.154,1.3,1.233,1.233,0,0,0,1.154-1.3v-2.3a1,1,0,1,1,2,0v2.3A3.232,3.232,0,0,1,6.029,45.564Z" transform="translate(-1.49 -13.22)"/>
        <path id="패스_7922" data-name="패스 7922" class="cls-4" d="M36.49,33.41H30.029a1,1,0,0,1,0-2H36.49a1.552,1.552,0,0,0,1.462-1.626V21.938a1.742,1.742,0,0,0-.329-1.026L34.753,17H8.074L5.2,20.911a1.742,1.742,0,0,0-.329,1.027v7.847A1.552,1.552,0,0,0,6.337,31.41h6.231a1,1,0,1,1,0,2H6.337a3.55,3.55,0,0,1-3.462-3.626V21.938a3.756,3.756,0,0,1,.717-2.21l3.169-4.319A1,1,0,0,1,7.567,15H35.26a1,1,0,0,1,.806.408l3.169,4.32a3.755,3.755,0,0,1,.717,2.21v7.847A3.55,3.55,0,0,1,36.49,33.41Z" transform="translate(-1.49 -5.661)"/>
        <path id="패스_7923" data-name="패스 7923" class="cls-4" d="M56.029,45.564a3.232,3.232,0,0,1-3.154-3.3v-2.3a1,1,0,0,1,2,0v2.3a1.162,1.162,0,1,0,2.308,0V38a1,1,0,0,1,2,0v4.267A3.232,3.232,0,0,1,56.029,45.564Z" transform="translate(-20.721 -13.22)"/>
        <path id="패스_7924" data-name="패스 7924" class="cls-4" d="M37.567,11.846a1,1,0,0,1-.957-.711L34.148,3A1.462,1.462,0,0,0,32.8,2H14.642a1.462,1.462,0,0,0-1.348,1l-2.462,8.135a1,1,0,1,1-1.914-.579l2.47-8.163q.008-.025.016-.049A3.487,3.487,0,0,1,14.642,0H32.8a3.487,3.487,0,0,1,3.238,2.344q.009.025.016.049l2.47,8.163a1,1,0,0,1-.958,1.29Z" transform="translate(-3.798 -0.508)"/>
        <path id="사각형_280908" data-name="사각형 280908" class="cls-4" d="M0-1H17.231a1,1,0,0,1,1,1V3.5a1,1,0,0,1-1,1H0a1,1,0,0,1-1-1V0A1,1,0,0,1,0-1ZM16.231,1H1V2.5H16.231Z" transform="translate(11.308 24.123)"/>
        <path id="패스_7925" data-name="패스 7925" class="cls-4" d="M6.743,15.4H2.436a2.534,2.534,0,0,1,0-5.063h2.13a2.431,2.431,0,0,1,2.248,1.555l.858,2.136A1,1,0,0,1,6.743,15.4ZM2.436,12.333a.542.542,0,0,0,0,1.063H5.264l-.306-.763a.443.443,0,0,0-.392-.3Z" transform="translate(-0.385 -4.058)"/>
        <path id="패스_7926" data-name="패스 7926" class="cls-4" d="M58.975,15.4H54.667a1,1,0,0,1-.928-1.373l.858-2.135a2.431,2.431,0,0,1,2.248-1.555h2.13a2.534,2.534,0,0,1,0,5.063Zm-2.828-2h2.828a.542.542,0,0,0,0-1.063h-2.13a.443.443,0,0,0-.392.3Z" transform="translate(-21.026 -4.058)"/>
        <path id="패스_7927" data-name="패스 7927" class="cls-4" d="M10.99,24.083a3.082,3.082,0,0,1,0,6.158,3.082,3.082,0,0,1,0-6.158Zm0,4.158a1.088,1.088,0,0,0,0-2.158,1.088,1.088,0,0,0,0,2.158Z" transform="translate(-3.478 -8.782)"/>
        <path id="패스_7928" data-name="패스 7928" class="cls-4" d="M51.323,24.083a3.082,3.082,0,1,1-2.948,3.079A3.019,3.019,0,0,1,51.323,24.083Zm0,4.158a1.088,1.088,0,1,0-.948-1.079A1.021,1.021,0,0,0,51.323,28.241Z" transform="translate(-18.99 -8.782)"/>
        <path id="패스_7929" data-name="패스 7929" class="cls-4" d="M34.183,30.188H20.439a1,1,0,0,1-.954-.7l-1.231-3.938a1,1,0,0,1,.954-1.3h16.2a1,1,0,0,1,.954,1.3l-1.231,3.938A1,1,0,0,1,34.183,30.188Zm-13.008-2H33.448l.606-1.938H20.569Z" transform="translate(-7.388 -8.84)"/>
      </g>
    </g>
  </g>
</svg>
