<svg xmlns="http://www.w3.org/2000/svg" xmlns:xlink="http://www.w3.org/1999/xlink" width="80" height="80" viewBox="0 0 80 80">
  <defs>
    <style>
      .cls-1 {
        fill: none;
        stroke: #4935b2;
      }

      .cls-2 {
        fill: #f7f7f7;
      }

      .cls-3 {
        clip-path: url(#clip-path);
      }

      .cls-4 {
        fill: #4935b2;
      }
    </style>
    <clipPath id="clip-path">
      <rect id="사각형_280915" data-name="사각형 280915" class="cls-1" width="40" height="40"/>
    </clipPath>
  </defs>
  <g id="그룹_384070" data-name="그룹 384070" transform="translate(651 -3694)">
    <circle id="타원_48" data-name="타원 48" class="cls-2" cx="40" cy="40" r="40" transform="translate(-651 3694)"/>
    <g id="그룹_384055" data-name="그룹 384055" transform="translate(-630 3715)">
      <g id="그룹_384054" data-name="그룹 384054" class="cls-3" transform="translate(-1 -1)">
        <path id="패스_7944" data-name="패스 7944" class="cls-4" d="M2.932,53.354a1,1,0,0,1-.984-1.179L3.9,41.488a1,1,0,0,1,1.968.359L4.175,51.111l9.265-1.689a1,1,0,1,1,.359,1.968L3.111,53.338A1,1,0,0,1,2.932,53.354Z" transform="translate(-0.174 -14.805)"/>
        <path id="패스_7945" data-name="패스 7945" class="cls-4" d="M14.8,36.6a1,1,0,0,1-.707-.293L5.356,27.566a1,1,0,0,1,0-1.414L29.373,2.135A2.282,2.282,0,0,1,31,1.464h0a2.282,2.282,0,0,1,1.625.671l6.9,6.9a2.3,2.3,0,0,1,0,3.25L15.509,36.3A1,1,0,0,1,14.8,36.6ZM7.477,26.859,14.8,34.183l23.31-23.309a.3.3,0,0,0,0-.421l-6.9-6.9a.3.3,0,0,0-.422,0Z" transform="translate(-1.357 0.003)"/>
        <path id="선_56" data-name="선 56" class="cls-4" d="M8.739,9.738a1,1,0,0,1-.707-.293L-.707.707a1,1,0,0,1,0-1.414,1,1,0,0,1,1.414,0L9.446,8.031a1,1,0,0,1-.707,1.707Z" transform="translate(26.321 5.248)"/>
        <path id="패스_7946" data-name="패스 7946" class="cls-4" d="M15.492,40.74a1,1,0,0,1-.707-1.707L33.493,20.326a1,1,0,0,1,1.414,1.414L16.2,40.447A1,1,0,0,1,15.492,40.74Z" transform="translate(-4.918 -7.011)"/>
        <path id="선_57" data-name="선 57" class="cls-4" d="M3.578,4.578a1,1,0,0,1-.707-.293L-.707.707a1,1,0,0,1,0-1.414,1,1,0,0,1,1.414,0L4.285,2.871a1,1,0,0,1-.707,1.707Z" transform="translate(3.584 33.144)"/>
        <path id="패스_7947" data-name="패스 7947" class="cls-4" d="M10.854,20.654a1,1,0,0,1-.707-.293L.475,10.689a1.623,1.623,0,0,1,0-2.294L8.4.475a1.622,1.622,0,0,1,2.3,0l9.568,9.567a1,1,0,1,1-1.414,1.414l-9.3-9.3L2.157,9.542l9.4,9.4a1,1,0,0,1-.707,1.707Z" transform="translate(0.556 0.556)"/>
        <path id="패스_7948" data-name="패스 7948" class="cls-4" d="M40.6,50.142a1.618,1.618,0,0,1-1.138-.463l-9.355-9.223a1,1,0,1,1,1.4-1.424L40.6,47.99,47.992,40.6,38.967,31.5a1,1,0,0,1,1.42-1.409l9.29,9.36a1.623,1.623,0,0,1-.005,2.29l-7.924,7.924A1.621,1.621,0,0,1,40.6,50.142Z" transform="translate(-10.703 -10.7)"/>
        <path id="선_58" data-name="선 58" class="cls-4" d="M0,6.571a1,1,0,0,1-.707-.293,1,1,0,0,1,0-1.414L4.864-.707a1,1,0,0,1,1.414,0,1,1,0,0,1,0,1.414L.707,6.278A1,1,0,0,1,0,6.571Z" transform="translate(6.965 3.737)"/>
        <path id="선_59" data-name="선 59" class="cls-4" d="M0,4.371a1,1,0,0,1-.707-.293,1,1,0,0,1,0-1.414L2.665-.707a1,1,0,0,1,1.414,0,1,1,0,0,1,0,1.414L.707,4.079A1,1,0,0,1,0,4.371Z" transform="translate(11.806 6.376)"/>
        <path id="선_60" data-name="선 60" class="cls-4" d="M0,4.371a1,1,0,0,1-.707-.293,1,1,0,0,1,0-1.414L2.665-.707a1,1,0,0,1,1.414,0,1,1,0,0,1,0,1.414L.707,4.079A1,1,0,0,1,0,4.371Z" transform="translate(14.446 9.016)"/>
        <path id="선_61" data-name="선 61" class="cls-4" d="M0,6.571a1,1,0,0,1-.707-.293,1,1,0,0,1,0-1.414L4.864-.707a1,1,0,0,1,1.414,0,1,1,0,0,1,0,1.414L.707,6.278A1,1,0,0,1,0,6.571Z" transform="translate(30.481 27.251)"/>
        <path id="선_62" data-name="선 62" class="cls-4" d="M0,4.371a1,1,0,0,1-.707-.293,1,1,0,0,1,0-1.414L2.665-.707a1,1,0,0,1,1.414,0,1,1,0,0,1,0,1.414L.707,4.079A1,1,0,0,1,0,4.371Z" transform="translate(27.024 22.217)"/>
        <path id="선_63" data-name="선 63" class="cls-4" d="M0,4.371a1,1,0,0,1-.707-.293,1,1,0,0,1,0-1.414L2.665-.707a1,1,0,0,1,1.414,0,1,1,0,0,1,0,1.414L.707,4.079A1,1,0,0,1,0,4.371Z" transform="translate(29.664 24.857)"/>
      </g>
    </g>
  </g>
</svg>
