<svg xmlns="http://www.w3.org/2000/svg" width="40" height="40" viewBox="0 0 40 40">
  <defs>
    <style>
      .cls-1 {
        fill: #56baee;
      }

      .cls-2 {
        fill: #fff;
      }
    </style>
  </defs>
  <g id="그룹_383558" data-name="그룹 383558" transform="translate(-973 -172)">
    <rect id="사각형_280827" data-name="사각형 280827" class="cls-1" width="40" height="40" rx="20" transform="translate(973 172)"/>
    <path id="패스_7835" data-name="패스 7835" class="cls-2" d="M4.949,5.993A6.551,6.551,0,0,1,14,5.65a6.548,6.548,0,0,1,9.049.343,6.915,6.915,0,0,1,.348,9.239l-7.95,8.155a2.014,2.014,0,0,1-2.784.106l-.111-.106L4.6,15.231a6.915,6.915,0,0,1,.347-9.239M6.4,7.473a4.787,4.787,0,0,0-.149,6.5l.149.161L14,21.906l5.43-5.553-3.62-3.7-1.085,1.111a3.026,3.026,0,0,1-4.345,0,3.191,3.191,0,0,1,0-4.441l2.152-2.2a4.533,4.533,0,0,0-5.977.2Zm8.689,2.961a1.009,1.009,0,0,1,1.448,0l4.344,4.44.725-.739a4.787,4.787,0,0,0,0-6.663,4.537,4.537,0,0,0-6.36-.152l-.156.152L11.828,10.8a1.064,1.064,0,0,0-.079,1.389l.079.091a1.007,1.007,0,0,0,1.359.081l.089-.081Z" transform="translate(979 179)"/>
  </g>
</svg>
