<svg xmlns="http://www.w3.org/2000/svg" xmlns:xlink="http://www.w3.org/1999/xlink" width="80" height="80" viewBox="0 0 80 80">
  <defs>
    <style>
      .cls-1 {
        fill: none;
        stroke: #4a36b3;
      }

      .cls-2 {
        fill: #f7f7f7;
      }

      .cls-3 {
        clip-path: url(#clip-path);
      }

      .cls-4 {
        fill: #4a36b3;
      }
    </style>
    <clipPath id="clip-path">
      <rect id="사각형_280839" data-name="사각형 280839" class="cls-1" width="40" height="46" transform="translate(0 0)"/>
    </clipPath>
  </defs>
  <g id="그룹_384059" data-name="그룹 384059" transform="translate(651 -2628)">
    <circle id="타원_27" data-name="타원 27" class="cls-2" cx="40" cy="40" r="40" transform="translate(-651 2628)"/>
    <g id="그룹_383601" data-name="그룹 383601" transform="translate(-630.84 2645.039)">
      <g id="그룹_383600" data-name="그룹 383600" class="cls-3" transform="translate(-0.16 -0.039)">
        <path id="패스_7864" data-name="패스 7864" class="cls-4" d="M44.783,57.105H24.877a2.358,2.358,0,0,1-2.341-2.37V45.768a2.367,2.367,0,0,1,.689-1.679l.652-.658V39.3a2.358,2.358,0,0,1,2.341-2.37H43.442a2.358,2.358,0,0,1,2.341,2.37v4l.748.849a2.386,2.386,0,0,1,.594,1.577v9.014A2.358,2.358,0,0,1,44.783,57.105ZM26.218,38.93a.357.357,0,0,0-.341.37v4.543a1,1,0,0,1-.29.7l-.942.951a.385.385,0,0,0-.11.271v8.967a.357.357,0,0,0,.341.37H44.783a.357.357,0,0,0,.341-.37V45.721a.387.387,0,0,0-.1-.256l-1-1.131a1,1,0,0,1-.25-.661V39.3a.357.357,0,0,0-.341-.37Z" transform="translate(-6.967 -10.856)"/>
        <path id="선_1" data-name="선 1" class="cls-4" d="M19.906,1H0A1,1,0,0,1-1,0,1,1,0,0,1,0-1H19.906a1,1,0,0,1,1,1A1,1,0,0,1,19.906,1Z" transform="translate(17.91 32.818)"/>
        <path id="사각형_280838" data-name="사각형 280838" class="cls-4" d="M1.417-1h21.3a2.42,2.42,0,0,1,2.417,2.417V2.694A2.419,2.419,0,0,1,22.723,5.11H1.417A2.42,2.42,0,0,1-1,2.693V1.417A2.42,2.42,0,0,1,1.417-1ZM22.723,3.11a.416.416,0,0,0,.416-.416V1.417A.417.417,0,0,0,22.722,1H1.417A.417.417,0,0,0,1,1.417V2.693a.417.417,0,0,0,.417.417Z" transform="translate(0.843 0.748)"/>
        <path id="패스_7865" data-name="패스 7865" class="cls-4" d="M27.925,29.526l-.074,0a1,1,0,0,1-.924-1.071l.652-8.887a33.155,33.155,0,0,1,4.1-13.722l.026-.046a1,1,0,0,1,1.745.977l-.025.045a31.349,31.349,0,0,0-3.854,12.893L28.921,28.6A1,1,0,0,1,27.925,29.526Z" transform="translate(-8.294 -1.769)"/>
        <path id="패스_7866" data-name="패스 7866" class="cls-4" d="M16.852,38.253H8.536a2.358,2.358,0,0,1-2.321-2.061q0-.028-.006-.057L5.024,19.774a31.345,31.345,0,0,0-3.9-13A1,1,0,1,1,2.869,5.8,33.358,33.358,0,0,1,7.019,19.63L8.2,35.954a.351.351,0,0,0,.335.3h8.316a1,1,0,0,1,0,2Z" transform="translate(-0.458 -1.769)"/>
        <path id="패스_7867" data-name="패스 7867" class="cls-4" d="M20.911,61.454H12.052a2.324,2.324,0,0,1-2.307-2.335V54.408a2.324,2.324,0,0,1,2.307-2.335H19.5a1,1,0,0,1,0,2H12.052a.322.322,0,0,0-.307.335v4.711a.322.322,0,0,0,.307.335h8.859a1,1,0,0,1,0,2Z" transform="translate(-3.102 -15.204)"/>
        <path id="선_2" data-name="선 2" class="cls-4" d="M0,3.3a1,1,0,0,1-1-1V0A1,1,0,0,1,0-1,1,1,0,0,1,1,0V2.3A1,1,0,0,1,0,3.3Z" transform="translate(9.113 35.569)"/>
        <path id="패스_7868" data-name="패스 7868" class="cls-4" d="M38.556,49.636a4,4,0,1,1-3.941,4A3.977,3.977,0,0,1,38.556,49.636Zm0,6.008a2,2,0,1,0-1.941-2A1.975,1.975,0,0,0,38.556,55.644Z" transform="translate(-10.618 -14.505)"/>
        <path id="타원_31" data-name="타원 31" class="cls-4" d="M3.284-1A4.325,4.325,0,0,1,7.568,3.355,4.325,4.325,0,0,1,3.284,7.709,4.325,4.325,0,0,1-1,3.355,4.325,4.325,0,0,1,3.284-1Zm0,6.709A2.323,2.323,0,0,0,5.568,3.355,2.323,2.323,0,0,0,3.284,1,2.323,2.323,0,0,0,1,3.355,2.323,2.323,0,0,0,3.284,5.709Z" transform="translate(9.749 12.543)"/>
      </g>
    </g>
  </g>
</svg>
