<svg xmlns="http://www.w3.org/2000/svg" width="56" height="56" viewBox="0 0 56 56">
  <defs>
    <style>
      .cls-1 {
        fill: none;
        opacity: 0.5;
      }

      .cls-2 {
        fill: #fff;
      }
    </style>
  </defs>
  <g id="그룹_383841" data-name="그룹 383841" transform="translate(-221 -14486)">
    <rect id="사각형_280886" data-name="사각형 280886" class="cls-1" width="56" height="56" transform="translate(221 14486)"/>
    <path id="apple-fill" class="cls-2" d="M20.78,12.918c-1.746,0-4.448-1.886-7.294-1.818a10.858,10.858,0,0,0-9.135,5.272c-3.9,6.431-1,15.931,2.8,21.158,1.865,2.545,4.065,5.409,6.983,5.318,2.8-.114,3.85-1.727,7.246-1.727,3.372,0,4.328,1.727,7.293,1.659,3.013-.045,4.926-2.591,6.767-5.159A22.336,22.336,0,0,0,38.5,31.644a9.357,9.357,0,0,1-5.93-8.5c-.048-5.318,4.567-7.863,4.783-7.977a10.544,10.544,0,0,0-8.083-4.159C25.587,10.736,22.5,12.918,20.78,12.918ZM27,7.554a8.9,8.9,0,0,0,2.3-6.7,10.128,10.128,0,0,0-6.5,3.182,8.523,8.523,0,0,0-2.343,6.5A8.415,8.415,0,0,0,27,7.554Z" transform="translate(228.5 14492.149)"/>
  </g>
</svg>
