<svg id="그룹_383840" data-name="그룹 383840" xmlns="http://www.w3.org/2000/svg" width="56" height="56" viewBox="0 0 56 56">
  <defs>
    <style>
      .cls-1 {
        fill: none;
        opacity: 0.5;
      }

      .cls-2 {
        fill: #fff;
      }
    </style>
  </defs>
  <rect id="사각형_280886" data-name="사각형 280886" class="cls-1" width="56" height="56"/>
  <path id="google-play-fill" class="cls-2" d="M4.015,1.814l16.968,18-16.966,18a1.694,1.694,0,0,1-.792-.742A1.85,1.85,0,0,1,3,36.187V3.441A1.773,1.773,0,0,1,4.015,1.814ZM22.161,21.063,26,25.131,7.773,36.322Zm5.33-5.651,4.677,2.873a1.826,1.826,0,0,1,.607,2.415,1.718,1.718,0,0,1-.607.644L27.49,24.215l-4.151-4.4ZM7.773,3.305,26,14.495l-3.837,4.07Z" transform="translate(9.999 8.187)"/>
</svg>
