<svg xmlns="http://www.w3.org/2000/svg" width="40" height="40" viewBox="0 0 40 40">
  <defs>
    <style>
      .cls-1 {
        fill: #6045e6;
      }

      .cls-2 {
        fill: #fff;
      }
    </style>
  </defs>
  <g id="그룹_383538" data-name="그룹 383538" transform="translate(-549 -172)">
    <rect id="사각형_280817" data-name="사각형 280817" class="cls-1" width="40" height="40" rx="20" transform="translate(549 172)"/>
    <path id="패스_7832" data-name="패스 7832" class="cls-2" d="M19.346,18.877H15.359c-.118-.375-.247-.745-.389-1.112s-.294-.717-.456-1.055h2.909V12.29H11.14A11.724,11.724,0,0,0,9.4,11.04a12.44,12.44,0,0,0-1.922-.917H19.346ZM3.5,23.5V20.192a2.664,2.664,0,0,1,2.071.965A3.412,3.412,0,0,1,6.422,23.5Zm4.846,0a5.635,5.635,0,0,0-1.418-3.878,4.422,4.422,0,0,0-3.428-1.6V15.858A6.169,6.169,0,0,1,8.294,18.09a7.877,7.877,0,0,1,1.974,5.41Zm3.846,0a10.541,10.541,0,0,0-.686-3.823,10.176,10.176,0,0,0-1.859-3.111,8.778,8.778,0,0,0-2.755-2.1A7.623,7.623,0,0,0,3.5,13.691V11.524a9.332,9.332,0,0,1,4.131.939,10.76,10.76,0,0,1,3.378,2.57,12.31,12.31,0,0,1,2.276,3.806,12.978,12.978,0,0,1,.831,4.661Zm9.385,0H16.038q0-.534-.032-1.084T15.9,21.333h5.68V7.667H5.422V9.515a9.21,9.21,0,0,0-.961-.122c-.325-.025-.646-.036-.961-.036V7.667a2.226,2.226,0,0,1,.565-1.53A1.752,1.752,0,0,1,5.422,5.5H21.576a1.75,1.75,0,0,1,1.358.637,2.221,2.221,0,0,1,.566,1.53V21.333a2.221,2.221,0,0,1-.566,1.53,1.75,1.75,0,0,1-1.358.637" transform="translate(555.5 177.5)"/>
  </g>
</svg>
