<svg xmlns="http://www.w3.org/2000/svg" width="40" height="80" viewBox="0 0 40 80">
  <defs>
    <style>
      .cls-1 {
        fill: none;
        opacity: 0.5;
      }

      .cls-2 {
        fill: #fff;
      }

      .cls-3 {
        fill: #4a36b3;
      }
    </style>
  </defs>
  <g id="그룹_384443" data-name="그룹 384443" transform="translate(-634 -1987)">
    <g id="그룹_384442" data-name="그룹 384442" transform="translate(634 2027)">
      <rect id="사각형_280731" data-name="사각형 280731" class="cls-1" width="40" height="40"/>
      <path id="shopping_cart_FILL0_wght400_GRAD0_opsz24" class="cls-2" d="M50.209-846a3.279,3.279,0,0,1-2.4-1,3.272,3.272,0,0,1-1-2.4,3.273,3.273,0,0,1,1-2.4,3.278,3.278,0,0,1,2.4-1,3.278,3.278,0,0,1,2.4,1,3.273,3.273,0,0,1,1,2.4,3.272,3.272,0,0,1-1,2.4A3.279,3.279,0,0,1,50.209-846Zm17.016,0a3.279,3.279,0,0,1-2.4-1,3.272,3.272,0,0,1-1-2.4,3.273,3.273,0,0,1,1-2.4,3.278,3.278,0,0,1,2.4-1,3.278,3.278,0,0,1,2.4,1,3.273,3.273,0,0,1,1,2.4,3.272,3.272,0,0,1-1,2.4A3.279,3.279,0,0,1,67.225-846ZM48.763-873.2l4.084,8.5H64.758l4.679-8.5Zm-1.617-3.4h25.1a1.629,1.629,0,0,1,1.489.871,1.713,1.713,0,0,1,.043,1.764l-6.041,10.88a3.405,3.405,0,0,1-1.255,1.317,3.311,3.311,0,0,1-1.723.467H52.081l-1.872,3.4H70.628v3.4H50.209a3.15,3.15,0,0,1-2.893-1.679,3.211,3.211,0,0,1-.085-3.336l2.3-4.165L43.4-876.6H40V-880h5.53Zm5.7,11.9h0Z" transform="translate(-37.283 883)"/>
    </g>
    <g id="Cart" transform="translate(634 1987)">
      <rect id="사각형_280731-2" data-name="사각형 280731" class="cls-1" width="40" height="40"/>
      <path id="shopping_cart_FILL0_wght400_GRAD0_opsz24-2" data-name="shopping_cart_FILL0_wght400_GRAD0_opsz24" class="cls-3" d="M50.209-846a3.278,3.278,0,0,1-2.4-1,3.272,3.272,0,0,1-1-2.4,3.273,3.273,0,0,1,1-2.4,3.279,3.279,0,0,1,2.4-1,3.279,3.279,0,0,1,2.4,1,3.273,3.273,0,0,1,1,2.4,3.272,3.272,0,0,1-1,2.4A3.278,3.278,0,0,1,50.209-846Zm17.016,0a3.278,3.278,0,0,1-2.4-1,3.272,3.272,0,0,1-1-2.4,3.273,3.273,0,0,1,1-2.4,3.279,3.279,0,0,1,2.4-1,3.279,3.279,0,0,1,2.4,1,3.273,3.273,0,0,1,1,2.4,3.272,3.272,0,0,1-1,2.4A3.278,3.278,0,0,1,67.225-846ZM48.763-873.2l4.084,8.5H64.758l4.679-8.5Zm-1.617-3.4h25.1a1.629,1.629,0,0,1,1.489.871,1.712,1.712,0,0,1,.043,1.764l-6.041,10.88a3.4,3.4,0,0,1-1.255,1.317,3.311,3.311,0,0,1-1.723.467H52.081l-1.872,3.4H70.628v3.4H50.209a3.15,3.15,0,0,1-2.893-1.679,3.211,3.211,0,0,1-.085-3.336l2.3-4.165L43.4-876.6H40V-880h5.53Zm5.7,11.9h0Z" transform="translate(-37.283 883)"/>
    </g>
  </g>
</svg>
