<svg xmlns="http://www.w3.org/2000/svg" width="56" height="56" viewBox="0 0 56 56">
  <defs>
    <style>
      .cls-1, .cls-2 {
        fill: none;
      }

      .cls-1 {
        opacity: 0.5;
      }

      .cls-3 {
        fill: #fff;
      }
    </style>
  </defs>
  <g id="그룹_384107" data-name="그룹 384107" transform="translate(-622 -338)">
    <g id="그룹_18509" data-name="그룹 18509" transform="translate(622.403 337.82)">
      <rect id="사각형_152" data-name="사각형 152" class="cls-1" width="56" height="56" transform="translate(-0.403 0.18)"/>
      <rect id="사각형_153" data-name="사각형 153" class="cls-2" width="56" height="56" transform="translate(-0.403 0.18)"/>
    </g>
    <path id="패스_7696" data-name="패스 7696" class="cls-3" d="M147,54a24,24,0,1,1,24-24,24,24,0,0,1-24,24m-5.5-5.6a42.944,42.944,0,0,1-4.039-16h-9.516a19.219,19.219,0,0,0,13.555,16m.77-16A38.159,38.159,0,0,0,147,48.6a38.159,38.159,0,0,0,4.726-16.2Zm23.777,0h-9.516a42.944,42.944,0,0,1-4.039,16,19.219,19.219,0,0,0,13.555-16m-38.1-4.8h9.516a42.944,42.944,0,0,1,4.039-16,19.219,19.219,0,0,0-13.555,16m14.326,0h9.451A38.179,38.179,0,0,0,147,11.4a38.179,38.179,0,0,0-4.726,16.2m10.222-16a42.943,42.943,0,0,1,4.039,16h9.516a19.219,19.219,0,0,0-13.555-16" transform="translate(503 336)"/>
  </g>
</svg>
