<svg xmlns="http://www.w3.org/2000/svg" xmlns:xlink="http://www.w3.org/1999/xlink" width="80" height="80" viewBox="0 0 80 80">
  <defs>
    <style>
      .cls-1 {
        fill: none;
        stroke: #4935b2;
      }

      .cls-2 {
        fill: #f7f7f7;
      }

      .cls-3 {
        clip-path: url(#clip-path);
      }

      .cls-4 {
        fill: #4935b2;
      }
    </style>
    <clipPath id="clip-path">
      <rect id="사각형_280914" data-name="사각형 280914" class="cls-1" width="42" height="44"/>
    </clipPath>
  </defs>
  <g id="그룹_384069" data-name="그룹 384069" transform="translate(651 -3596)">
    <circle id="타원_43" data-name="타원 43" class="cls-2" cx="40" cy="40" r="40" transform="translate(-651 3596)"/>
    <g id="그룹_384052" data-name="그룹 384052" transform="translate(-631 3615)">
      <g id="그룹_384051" data-name="그룹 384051" class="cls-3" transform="translate(-1 -1)">
        <path id="타원_44" data-name="타원 44" class="cls-4" d="M.319-1A1.32,1.32,0,0,1,1.639.318,1.319,1.319,0,0,1-1,.318,1.32,1.32,0,0,1,.319-1Z" transform="translate(18.062 5.446)"/>
        <path id="타원_45" data-name="타원 45" class="cls-4" d="M.639-1A1.639,1.639,0,0,1,2.278.636,1.639,1.639,0,0,1-1,.636,1.639,1.639,0,0,1,.639-1Z" transform="translate(30.839 6.4)"/>
        <path id="타원_46" data-name="타원 46" class="cls-4" d="M1.917-1A2.908,2.908,0,1,1-1,1.908,2.915,2.915,0,0,1,1.917-1Zm0,3.815A.908.908,0,1,0,1,1.908.913.913,0,0,0,1.917,2.815Z" transform="translate(23.492 1.631)"/>
        <path id="타원_47" data-name="타원 47" class="cls-4" d="M3.194-1A4.179,4.179,0,1,1-1,3.179,4.192,4.192,0,0,1,3.194-1Zm0,6.359A2.179,2.179,0,1,0,1,3.179,2.189,2.189,0,0,0,3.194,5.359Z" transform="translate(3.049 8.944)"/>
        <path id="패스_7937" data-name="패스 7937" class="cls-4" d="M9.723,30.245A2.711,2.711,0,1,1,7.571,31.3,2.7,2.7,0,0,1,9.723,30.245Zm0,3.418a.715.715,0,0,0,.57-.278.7.7,0,0,0-.129-.991.723.723,0,0,0-1.01.129.7.7,0,0,0,.13.991A.715.715,0,0,0,9.72,33.663Z" transform="translate(-1.891 -10.382)"/>
        <path id="선_49" data-name="선 49" class="cls-4" d="M0,3.9a1,1,0,0,1-.624-.219A1,1,0,0,1-.781,2.279l2.322-2.9A1,1,0,0,1,2.947-.781,1,1,0,0,1,3.1.625L.781,3.528A1,1,0,0,1,0,3.9Z" transform="translate(4.482 24)"/>
        <path id="패스_7938" data-name="패스 7938" class="cls-4" d="M2.716,44.687A2.731,2.731,0,0,1,1.027,44.1a2.709,2.709,0,0,1,1.692-4.83,2.731,2.731,0,0,1,1.689.588,2.709,2.709,0,0,1-1.692,4.83Zm0-3.418a.718.718,0,0,0-.564.269.7.7,0,0,0,.114.993.723.723,0,0,0,1.011-.114.7.7,0,0,0-.115-.993A.713.713,0,0,0,2.719,41.269Z" transform="translate(0.639 -13.668)"/>
        <path id="패스_7939" data-name="패스 7939" class="cls-4" d="M48.251,41.172a2.717,2.717,0,1,1,1.43-.407A2.7,2.7,0,0,1,48.251,41.172Zm0-3.419a.719.719,0,0,0-.378.108.705.705,0,0,0-.319.442.7.7,0,0,0,.088.532.722.722,0,0,0,.99.229.705.705,0,0,0,.319-.442.7.7,0,0,0-.088-.532A.716.716,0,0,0,48.248,37.753Z" transform="translate(-15.804 -12.387)"/>
        <path id="선_50" data-name="선 50" class="cls-4" d="M0,2.957a1,1,0,0,1-.852-.475A1,1,0,0,1-.526,1.106L2.643-.851a1,1,0,0,1,1.376.325A1,1,0,0,1,3.694.851L.526,2.808A1,1,0,0,1,0,2.957Z" transform="translate(33.94 23.194)"/>
        <path id="패스_7940" data-name="패스 7940" class="cls-4" d="M52.05,19.788h0a2.717,2.717,0,1,1-1.411.4A2.7,2.7,0,0,1,52.05,19.788Zm0,3.418a.717.717,0,0,0,.7-.544.7.7,0,0,0-.084-.533.721.721,0,0,0-.988-.237.705.705,0,0,0-.322.439.7.7,0,0,0,.084.532A.715.715,0,0,0,52.053,23.207Z" transform="translate(-17.178 -6.574)"/>
        <path id="선_51" data-name="선 51" class="cls-4" d="M1.942,4.169a1,1,0,0,1-.854-.478L-.853.522A1,1,0,0,1-.522-.853a1,1,0,0,1,1.375.33L2.794,2.646a1,1,0,0,1-.852,1.523Z" transform="translate(35.79 17.419)"/>
        <path id="패스_7941" data-name="패스 7941" class="cls-4" d="M57.95,29.729a2.718,2.718,0,1,1-1.429.406A2.7,2.7,0,0,1,57.95,29.729Zm0,3.419a.719.719,0,0,0,.378-.108.706.706,0,0,0,.319-.442.7.7,0,0,0-.088-.532.722.722,0,0,0-.99-.229.706.706,0,0,0-.32.442.7.7,0,0,0,.088.531A.717.717,0,0,0,57.954,33.148Z" transform="translate(-19.308 -10.194)"/>
        <path id="패스_7942" data-name="패스 7942" class="cls-4" d="M27.22,48.843h-.248a7.258,7.258,0,0,1-7.265-7.235V20.5a1,1,0,0,1,2,0V41.607a5.256,5.256,0,0,0,5.265,5.235h.248a5.256,5.256,0,0,0,5.265-5.235V20.5a1,1,0,1,1,2,0V41.607A7.258,7.258,0,0,1,27.22,48.843Z" transform="translate(-6.478 -6.469)"/>
        <path id="패스_7943" data-name="패스 7943" class="cls-4" d="M28.663,53.946h-.248a4.706,4.706,0,0,1-4.709-4.692,1,1,0,1,1,2,0,2.7,2.7,0,0,0,2.709,2.692h.248a2.7,2.7,0,0,0,2.709-2.692V41.5a1,1,0,0,1,2,0v7.754A4.706,4.706,0,0,1,28.663,53.946Z" transform="translate(-7.922 -14.116)"/>
        <path id="사각형_280913" data-name="사각형 280913" class="cls-4" d="M0-1H15.333a1,1,0,0,1,1,1V3.179a1,1,0,0,1-1,1H0a1,1,0,0,1-1-1V0A1,1,0,0,1,0-1ZM14.333,1H1V2.179H14.333Z" transform="translate(12.951 10.851)"/>
        <path id="선_52" data-name="선 52" class="cls-4" d="M4.472,1H0A1,1,0,0,1-1,0,1,1,0,0,1,0-1H4.472a1,1,0,0,1,1,1A1,1,0,0,1,4.472,1Z" transform="translate(14.229 17.846)"/>
        <path id="선_53" data-name="선 53" class="cls-4" d="M4.472,1H0A1,1,0,0,1-1,0,1,1,0,0,1,0-1H4.472a1,1,0,0,1,1,1A1,1,0,0,1,4.472,1Z" transform="translate(14.229 21.661)"/>
        <path id="선_54" data-name="선 54" class="cls-4" d="M4.472,1H0A1,1,0,0,1-1,0,1,1,0,0,1,0-1H4.472a1,1,0,0,1,1,1A1,1,0,0,1,4.472,1Z" transform="translate(14.229 25.477)"/>
        <path id="선_55" data-name="선 55" class="cls-4" d="M0,7.359a1,1,0,0,1-1-1V0A1,1,0,0,1,0-1,1,1,0,0,1,1,0V6.359A1,1,0,0,1,0,7.359Z" transform="translate(24.451 17.846)"/>
      </g>
    </g>
  </g>
</svg>
