<svg xmlns="http://www.w3.org/2000/svg" xmlns:xlink="http://www.w3.org/1999/xlink" width="80" height="80" viewBox="0 0 80 80">
  <defs>
    <style>
      .cls-1 {
        fill: none;
        stroke: #4a36b3;
      }

      .cls-2 {
        fill: #f7f7f7;
      }

      .cls-3 {
        clip-path: url(#clip-path);
      }

      .cls-4 {
        fill: #4a36b3;
      }
    </style>
    <clipPath id="clip-path">
      <rect id="사각형_280849" data-name="사각형 280849" class="cls-1" width="40" height="42" transform="translate(1 1)"/>
    </clipPath>
  </defs>
  <g id="그룹_384062" data-name="그룹 384062" transform="translate(651 -2922)">
    <circle id="타원_32" data-name="타원 32" class="cls-2" cx="40" cy="40" r="40" transform="translate(-651 2922)"/>
    <g id="그룹_383645" data-name="그룹 383645" transform="translate(-630 2942)">
      <g id="그룹_383644" data-name="그룹 383644" class="cls-3" transform="translate(-2 -2)">
        <path id="패스_7884" data-name="패스 7884" class="cls-4" d="M27.444,46.7A10.038,10.038,0,0,1,21.7,44.74a9.705,9.705,0,0,0-6.231-1.979,5.7,5.7,0,0,0-2.385.665l.007,0-1.088-1.678a7.353,7.353,0,0,1,3.171-.964,11.555,11.555,0,0,1,7.661,2.314c4.94,3.4,8.329.365,8.471.234l0,0,1.375,1.453a7.818,7.818,0,0,1-3.148,1.645A8.11,8.11,0,0,1,27.444,46.7Z" transform="translate(-2.831 -13.939)"/>
        <path id="패스_7885" data-name="패스 7885" class="cls-4" d="M29.076,21.181H15.635a1,1,0,0,1-.988-.843l-2.3-14.5a1,1,0,0,1,1.975-.314l2.17,13.655H28.222l2.17-13.655a1,1,0,0,1,1.975.314l-2.3,14.5A1,1,0,0,1,29.076,21.181Z" transform="translate(-3.132 -0.209)"/>
        <path id="패스_7886" data-name="패스 7886" class="cls-4" d="M13.613,33.091H29.358a1,1,0,0,1,.955.7l2.472,7.973a1,1,0,0,1,.031.133,6.117,6.117,0,0,1-1.369,4.965,6.049,6.049,0,0,1-4.62,2.144H16.143a6.049,6.049,0,0,1-4.62-2.144A6.117,6.117,0,0,1,10.154,41.9a1,1,0,0,1,.031-.133l2.472-7.973A1,1,0,0,1,13.613,33.091Zm15.008,2H14.35l-2.232,7.2a4.12,4.12,0,0,0,.932,3.28,4.052,4.052,0,0,0,3.094,1.437H26.827a4.052,4.052,0,0,0,3.094-1.437,4.12,4.12,0,0,0,.932-3.28Z" transform="translate(-2.261 -11.026)"/>
        <path id="패스_7887" data-name="패스 7887" class="cls-4" d="M3.966,0h29.2a6.772,6.772,0,0,1,6.745,6.784V33.878a6.772,6.772,0,0,1-6.745,6.784H5.118A1,1,0,0,1,4.153,39.4a6.754,6.754,0,0,1,6.5-4.991H24.318a5.261,5.261,0,0,0,5.256-4.864L31.66,4.932a.208.208,0,0,0-.055-.162.192.192,0,0,0-.144-.064H8.043a5.428,5.428,0,0,1-5-3.314A1,1,0,0,1,3.966,0Zm29.2,38.662a4.77,4.77,0,0,0,4.745-4.784V6.784A4.77,4.77,0,0,0,33.167,2H5.963a3.413,3.413,0,0,0,2.08.706H31.461a2.2,2.2,0,0,1,2.192,2.4L31.566,29.714a7.315,7.315,0,0,1-2.326,4.765,7.234,7.234,0,0,1-4.923,1.93H10.649A4.737,4.737,0,0,0,6.63,38.662Z" transform="translate(0.473 1.574)"/>
        <path id="패스_7888" data-name="패스 7888" class="cls-4" d="M1,46.9A1,1,0,0,1,.1,45.451l3.072-6.186a1,1,0,0,1,.9-.555H8.3a1,1,0,0,1,0,2h-3.6L1.9,46.341A1,1,0,0,1,1,46.9Z" transform="translate(1.615 -13.166)"/>
        <path id="선_7" data-name="선 7" class="cls-4" d="M0,3.32a1,1,0,0,1-1-1V0A1,1,0,0,1,0-1,1,1,0,0,1,1,0V2.32A1,1,0,0,1,0,3.32Z" transform="translate(13.896 20.31)"/>
        <path id="선_8" data-name="선 8" class="cls-4" d="M0,3.32a1,1,0,0,1-1-1V0A1,1,0,0,1,0-1,1,1,0,0,1,1,0V2.32A1,1,0,0,1,0,3.32Z" transform="translate(24.648 20.31)"/>
        <path id="선_9" data-name="선 9" class="cls-4" d="M15.745,1H0A1,1,0,0,1-1,0,1,1,0,0,1,0-1H15.745a1,1,0,0,1,1,1A1,1,0,0,1,15.745,1Z" transform="translate(11.352 10.693)"/>
      </g>
    </g>
  </g>
</svg>
