<svg xmlns="http://www.w3.org/2000/svg" width="32" height="64" viewBox="0 0 32 64">
  <defs>
    <style>
      .cls-1 {
        fill: none;
        opacity: 0.5;
      }

      .cls-2 {
        fill: #c7ccd1;
      }

      .cls-3 {
        fill: #3f4447;
      }
    </style>
  </defs>
  <g id="그룹_384492" data-name="그룹 384492" transform="translate(3153 -3424)">
    <g id="그룹_384490" data-name="그룹 384490" transform="translate(-3153.283 3456)">
      <rect id="사각형_280731" data-name="사각형 280731" class="cls-1" width="32" height="32" transform="translate(0.283)"/>
      <path id="shopping_cart_FILL0_wght400_GRAD0_opsz24" class="cls-2" d="M47.807-854a2.507,2.507,0,0,1-1.838-.764A2.5,2.5,0,0,1,45.2-856.6a2.5,2.5,0,0,1,.764-1.836,2.507,2.507,0,0,1,1.838-.764,2.507,2.507,0,0,1,1.838.764,2.5,2.5,0,0,1,.764,1.836,2.5,2.5,0,0,1-.764,1.836A2.507,2.507,0,0,1,47.807-854Zm13.012,0a2.507,2.507,0,0,1-1.838-.764,2.5,2.5,0,0,1-.764-1.836,2.5,2.5,0,0,1,.764-1.836,2.507,2.507,0,0,1,1.838-.764,2.507,2.507,0,0,1,1.838.764,2.5,2.5,0,0,1,.764,1.836,2.5,2.5,0,0,1-.764,1.836A2.507,2.507,0,0,1,60.819-854ZM46.7-874.8l3.123,6.5h9.108l3.578-6.5Zm-1.236-2.6H64.658a1.246,1.246,0,0,1,1.139.666,1.31,1.31,0,0,1,.033,1.349l-4.619,8.32a2.6,2.6,0,0,1-.96,1.007,2.532,2.532,0,0,1-1.317.357H49.239l-1.431,2.6H63.422v2.6H47.807a2.409,2.409,0,0,1-2.212-1.284,2.455,2.455,0,0,1-.065-2.551l1.757-3.185L42.6-877.4H40V-880h4.229Zm4.359,9.1h0Z" transform="translate(-37 883)"/>
    </g>
    <g id="그룹_384491" data-name="그룹 384491" transform="translate(-3776 1)">
      <rect id="사각형_280731-2" data-name="사각형 280731" class="cls-1" width="32" height="32" transform="translate(623 3423)"/>
      <path id="shopping_cart_FILL0_wght400_GRAD0_opsz24-2" data-name="shopping_cart_FILL0_wght400_GRAD0_opsz24" class="cls-3" d="M47.807-854a2.507,2.507,0,0,1-1.838-.764A2.5,2.5,0,0,1,45.2-856.6a2.5,2.5,0,0,1,.764-1.836,2.507,2.507,0,0,1,1.838-.764,2.507,2.507,0,0,1,1.838.764,2.5,2.5,0,0,1,.764,1.836,2.5,2.5,0,0,1-.764,1.836A2.507,2.507,0,0,1,47.807-854Zm13.012,0a2.507,2.507,0,0,1-1.838-.764,2.5,2.5,0,0,1-.764-1.836,2.5,2.5,0,0,1,.764-1.836,2.507,2.507,0,0,1,1.838-.764,2.507,2.507,0,0,1,1.838.764,2.5,2.5,0,0,1,.764,1.836,2.5,2.5,0,0,1-.764,1.836A2.507,2.507,0,0,1,60.819-854ZM46.7-874.8l3.123,6.5h9.108l3.578-6.5Zm-1.236-2.6H64.658a1.246,1.246,0,0,1,1.139.666,1.31,1.31,0,0,1,.033,1.349l-4.619,8.32a2.6,2.6,0,0,1-.96,1.007,2.532,2.532,0,0,1-1.317.357H49.239l-1.431,2.6H63.422v2.6H47.807a2.409,2.409,0,0,1-2.212-1.284,2.455,2.455,0,0,1-.065-2.551l1.757-3.185L42.6-877.4H40V-880h4.229Zm4.359,9.1h0Z" transform="translate(586 4306)"/>
    </g>
  </g>
</svg>
