<svg xmlns="http://www.w3.org/2000/svg" xmlns:xlink="http://www.w3.org/1999/xlink" width="80" height="80" viewBox="0 0 80 80">
  <defs>
    <style>
      .cls-1 {
        fill: none;
        stroke: #4935b2;
      }

      .cls-2 {
        fill: #f7f7f7;
      }

      .cls-3 {
        clip-path: url(#clip-path);
      }

      .cls-4 {
        fill: #4935b2;
      }
    </style>
    <clipPath id="clip-path">
      <rect id="사각형_280907" data-name="사각형 280907" class="cls-1" width="40" height="40"/>
    </clipPath>
  </defs>
  <g id="그룹_384066" data-name="그룹 384066" transform="translate(651 -3315)">
    <circle id="타원_40" data-name="타원 40" class="cls-2" cx="40" cy="40" r="40" transform="translate(-651 3315)"/>
    <g id="그룹_384041" data-name="그룹 384041" transform="translate(-630 3336)">
      <g id="그룹_384040" data-name="그룹 384040" class="cls-3" transform="translate(-1 -1)">
        <path id="패스_7910" data-name="패스 7910" class="cls-4" d="M31.92,4.667a5.36,5.36,0,0,1,5.242,5.46,5.246,5.246,0,1,1-10.482,0A5.36,5.36,0,0,1,31.92,4.667Zm0,8.919a3.36,3.36,0,0,0,3.242-3.46,3.248,3.248,0,1,0-6.482,0A3.359,3.359,0,0,0,31.92,13.586Z" transform="translate(-10.558 -1.193)"/>
        <path id="패스_7911" data-name="패스 7911" class="cls-4" d="M35.75,6.622a1,1,0,0,1-.9-1.43A16.734,16.734,0,0,1,38.56.235a1,1,0,0,1,1.288,1.53,14.818,14.818,0,0,0-3.194,4.286A1,1,0,0,1,35.75,6.622Z" transform="translate(-13.915 0.613)"/>
        <path id="패스_7912" data-name="패스 7912" class="cls-4" d="M19.066,38.242l-.064,0A33.328,33.328,0,0,1,8.427,36.025c-3.909-1.673-4.729-3.642-4.729-5a1,1,0,0,1,2,0c0,2.1,5.135,4.692,13.43,5.219a1,1,0,0,1-.062,2Z" transform="translate(-1.001 -11.007)"/>
        <path id="패스_7913" data-name="패스 7913" class="cls-4" d="M17.184,27.572a1,1,0,0,1-.221-.025A18.361,18.361,0,0,1,10.024,24.7a1,1,0,0,1,1.215-1.589A16.693,16.693,0,0,0,17.4,25.6a1,1,0,0,1-.219,1.976Z" transform="translate(-3.469 -8.254)"/>
        <path id="패스_7914" data-name="패스 7914" class="cls-4" d="M39.794,41.586a1,1,0,0,1-.065-2,37.916,37.916,0,0,0,6.132-.879,1,1,0,1,1,.456,1.947,39.915,39.915,0,0,1-6.457.928Z" transform="translate(-15.596 -14.357)"/>
        <path id="패스_7915" data-name="패스 7915" class="cls-4" d="M56.667,36.225A1,1,0,0,1,56.29,34.3c2.371-.964,3.786-2.188,3.786-3.275a1,1,0,0,1,2,0c0,1.405-.873,3.435-5.032,5.127A1,1,0,0,1,56.667,36.225Z" transform="translate(-22.613 -11.007)"/>
        <path id="패스_7916" data-name="패스 7916" class="cls-4" d="M22.082,46.247A38.378,38.378,0,0,1,9.448,44.339a13.047,13.047,0,0,1-4.036-2.187A4.229,4.229,0,0,1,3.7,38.936a1,1,0,0,1,2,0c0,1.2,1.657,2.515,4.433,3.523a36.361,36.361,0,0,0,11.951,1.789,40.783,40.783,0,0,0,9.348-1.017,1,1,0,0,1,.467,1.945A42.8,42.8,0,0,1,22.082,46.247Z" transform="translate(-1.001 -14.069)"/>
        <path id="패스_7917" data-name="패스 7917" class="cls-4" d="M56,44.289a1,1,0,0,1-.356-1.935c2.6-.991,4.154-2.269,4.154-3.42a1,1,0,0,1,2,0,4.192,4.192,0,0,1-1.62,3.133,12.41,12.41,0,0,1-3.822,2.156A1,1,0,0,1,56,44.289Z" transform="translate(-22.336 -14.068)"/>
        <path id="패스_7918" data-name="패스 7918" class="cls-4" d="M22.082,44.974A38.378,38.378,0,0,1,9.448,43.065a13.046,13.046,0,0,1-4.035-2.187A4.229,4.229,0,0,1,3.7,37.662V23.114a1,1,0,0,1,2,0V37.662c0,1.2,1.657,2.515,4.433,3.523a36.361,36.361,0,0,0,11.951,1.789,36.359,36.359,0,0,0,11.95-1.789c2.776-1.008,4.433-2.325,4.433-3.523V23.114a1,1,0,1,1,2,0V37.662a4.229,4.229,0,0,1-1.715,3.215,13.046,13.046,0,0,1-4.035,2.187A38.375,38.375,0,0,1,22.082,44.974Z" transform="translate(-1.001 -7.945)"/>
        <path id="패스_7919" data-name="패스 7919" class="cls-4" d="M33.173,36.647a2.171,2.171,0,0,1-1.247-.4,2.284,2.284,0,0,1-.972-1.805l-.281-7.577a.992.992,0,0,0-.355-.738.8.8,0,0,0-.642-.174h-.007l-.052.008A4.273,4.273,0,0,0,26.212,29.5L26,30.7a4.013,4.013,0,0,1-4.428,3.362,3.8,3.8,0,0,1-2.3-1.212,4.594,4.594,0,0,1-1.14-2.316l-.181-1.028a4.336,4.336,0,0,0-3.483-3.556,24.042,24.042,0,0,1-7.494-2.4C4.267,22.03,3.7,20.381,3.7,19.265c0-1.278.733-3.143,4.225-4.775a30,30,0,0,1,9.524-2.315,1,1,0,1,1,.195,1.99A28.435,28.435,0,0,0,8.769,16.3C6.817,17.215,5.7,18.294,5.7,19.265c0,1.515,2.851,3.637,9.111,4.715a6.168,6.168,0,0,1,3.353,1.755,6.423,6.423,0,0,1,1.76,3.426L20.1,30.19a2.2,2.2,0,0,0,1.73,1.891,2.018,2.018,0,0,0,2.2-1.725l.211-1.2a6.276,6.276,0,0,1,5.041-5.159h.006l.053-.009a2.8,2.8,0,0,1,2.236.594,2.991,2.991,0,0,1,1.093,2.217l.281,7.577a.3.3,0,0,0,.12.241.167.167,0,0,0,.158.026.279.279,0,0,0,.171-.248l.756-8.521a6,6,0,0,1,2.674-4.445c.745-.5,1.634-1.282,1.634-2.158,0-.964-1.106-2.038-3.036-2.946a28.192,28.192,0,0,0-8.787-2.141,1,1,0,1,1,.2-1.99,29.757,29.757,0,0,1,9.438,2.321c3.458,1.628,4.184,3.485,4.184,4.756,0,.97-.437,2.419-2.518,3.818a4.006,4.006,0,0,0-1.8,2.961l-.756,8.521a2.269,2.269,0,0,1-1.548,1.974A2.181,2.181,0,0,1,33.173,36.647Z" transform="translate(-1.001 -4.097)"/>
        <path id="패스_7920" data-name="패스 7920" class="cls-4" d="M10.492,57.087q-.187,0-.375-.016a4.083,4.083,0,0,1-3.091-1.81,7.851,7.851,0,0,1-1.408,0A7.223,7.223,0,0,1,1.626,53.7,4.082,4.082,0,0,1,.011,50.243c.125-1.57.6-2.182,2.211-2.848a1,1,0,1,1,.764,1.848,2.976,2.976,0,0,0-.84.459A1.829,1.829,0,0,0,2,50.4c-.108,1.365,1.628,2.679,3.79,2.869a5.812,5.812,0,0,0,1.614-.082,1,1,0,0,1,1.134.65,2.018,2.018,0,0,0,1.75,1.24,2.106,2.106,0,0,0,1.541-.456,1.454,1.454,0,0,0,.534-1,1,1,0,1,1,1.994.158,3.448,3.448,0,0,1-1.236,2.367A4.086,4.086,0,0,1,10.492,57.087Z" transform="translate(0.537 -17.7)"/>
      </g>
    </g>
  </g>
</svg>
