<svg xmlns="http://www.w3.org/2000/svg" xmlns:xlink="http://www.w3.org/1999/xlink" width="80" height="80" viewBox="0 0 80 80">
  <defs>
    <style>
      .cls-1 {
        fill: none;
        stroke: #4935b2;
      }

      .cls-2 {
        fill: #f7f7f7;
      }

      .cls-3 {
        clip-path: url(#clip-path);
      }

      .cls-4 {
        fill: #4935b2;
      }
    </style>
    <clipPath id="clip-path">
      <rect id="사각형_280985" data-name="사각형 280985" class="cls-1" width="40" height="40"/>
    </clipPath>
  </defs>
  <g id="그룹_384241" data-name="그룹 384241" transform="translate(-870 -861)">
    <circle id="타원_49" data-name="타원 49" class="cls-2" cx="40" cy="40" r="40" transform="translate(870 861)"/>
    <g id="그룹_384240" data-name="그룹 384240" transform="translate(891 882)">
      <g id="그룹_384239" data-name="그룹 384239" class="cls-3" transform="translate(-1 -0.999)">
        <path id="패스_7954" data-name="패스 7954" class="cls-4" d="M6.051,37.135a1,1,0,0,1,0-2c2.007,0,2.566-3.476,2.628-3.914V1a1,1,0,0,1,2,0V31.286a1,1,0,0,1-.006.108A10.572,10.572,0,0,1,9.947,34.1a5.884,5.884,0,0,1-1.338,2A3.642,3.642,0,0,1,6.051,37.135Z" transform="translate(-1.408 0.553)"/>
        <path id="선_70" data-name="선 70" class="cls-4" d="M13.417,1H0A1,1,0,0,1-1,0,1,1,0,0,1,0-1H13.417a1,1,0,0,1,1,1A1,1,0,0,1,13.417,1Z" transform="translate(14.37 9.961)"/>
        <path id="선_71" data-name="선 71" class="cls-4" d="M10.368,1H0A1,1,0,0,1-1,0,1,1,0,0,1,0-1H10.368a1,1,0,0,1,1,1A1,1,0,0,1,10.368,1Z" transform="translate(14.37 15.367)"/>
        <path id="선_72" data-name="선 72" class="cls-4" d="M6.709,1H0A1,1,0,0,1-1,0,1,1,0,0,1,0-1H6.709a1,1,0,0,1,1,1A1,1,0,0,1,6.709,1Z" transform="translate(14.37 20.772)"/>
        <path id="선_73" data-name="선 73" class="cls-4" d="M6.709,1H0A1,1,0,0,1-1,0,1,1,0,0,1,0-1H6.709a1,1,0,0,1,1,1A1,1,0,0,1,6.709,1Z" transform="translate(14.37 26.178)"/>
        <path id="패스_7955" data-name="패스 7955" class="cls-4" d="M26.615,38.037H7.094a7.343,7.343,0,0,1-4.978-1.854A6.485,6.485,0,0,1,0,31.326v-5.7a1,1,0,0,1,1-1H6.605L6.709,1a1,1,0,0,1,1-1h25a1,1,0,0,1,1,1V16.616a1,1,0,1,1-2,0V2H8.7L8.6,25.63a1,1,0,0,1-1,1H2v4.7a4.806,4.806,0,0,0,5.094,4.711h19.52a1,1,0,0,1,0,2Z" transform="translate(0.562 0.553)"/>
        <path id="패스_7956" data-name="패스 7956" class="cls-4" d="M45.13,42.608A8.058,8.058,0,1,1,53.3,34.552,8.121,8.121,0,0,1,45.13,42.608Zm0-14.114A6.058,6.058,0,1,0,51.3,34.552,6.119,6.119,0,0,0,45.13,28.494Z" transform="translate(-13.859 -10.029)"/>
        <path id="타원_50" data-name="타원 50" class="cls-4" d="M4.095-1A5.07,5.07,0,0,1,9.189,4.033,5.07,5.07,0,0,1,4.095,9.065,5.07,5.07,0,0,1-1,4.033,5.07,5.07,0,0,1,4.095-1Zm0,8.065A3.068,3.068,0,0,0,7.189,4.033,3.068,3.068,0,0,0,4.095,1,3.068,3.068,0,0,0,1,4.033,3.068,3.068,0,0,0,4.095,7.065Z" transform="translate(27.177 20.49)"/>
        <path id="패스_7957" data-name="패스 7957" class="cls-4" d="M51.318,58.464a1,1,0,0,1-.484-.125l-3.175-1.757-3.175,1.757A1,1,0,0,1,43,57.464V50a1,1,0,0,1,2,0v5.768l2.175-1.2a1,1,0,0,1,.968,0l2.175,1.2V50a1,1,0,0,1,2,0v7.464a1,1,0,0,1-1,1Z" transform="translate(-16.213 -19.017)"/>
      </g>
    </g>
  </g>
</svg>
