<svg xmlns="http://www.w3.org/2000/svg" xmlns:xlink="http://www.w3.org/1999/xlink" width="80" height="80" viewBox="0 0 80 80">
  <defs>
    <style>
      .cls-1 {
        fill: none;
        stroke: #4a36b3;
      }

      .cls-2 {
        fill: #f7f7f7;
      }

      .cls-3 {
        fill: #4a36b3;
      }

      .cls-4 {
        clip-path: url(#clip-path);
      }
    </style>
    <clipPath id="clip-path">
      <rect id="사각형_280848" data-name="사각형 280848" class="cls-1" width="42" height="40" transform="translate(-1 -0.462)"/>
    </clipPath>
  </defs>
  <g id="그룹_384060" data-name="그룹 384060" transform="translate(651 -2728)">
    <circle id="타원_27" data-name="타원 27" class="cls-2" cx="40" cy="40" r="40" transform="translate(-651 2728)"/>
    <g id="그룹_383642" data-name="그룹 383642" transform="translate(-631 2748.462)">
      <path id="선_5" data-name="선 5" class="cls-3" d="M18.666,1H0A1,1,0,0,1-1,0,1,1,0,0,1,0-1H18.666a1,1,0,0,1,1,1A1,1,0,0,1,18.666,1Z" transform="translate(10.698 12.216)"/>
      <g id="그룹_383641" data-name="그룹 383641" transform="translate(0 0)">
        <g id="그룹_383640" data-name="그룹 383640" class="cls-4">
          <path id="패스_7880" data-name="패스 7880" class="cls-3" d="M36.461,46.712H4.423a1,1,0,0,1-.706-.292A14.829,14.829,0,0,1,1.2,43.268,8.973,8.973,0,0,1,.072,39.777c-.274-2.433.245-5.38,1.3-9.965l.009-.036,2.7-10.036A1,1,0,0,1,5.042,19h6.516a1,1,0,0,1,0,2H5.809L3.316,30.278c-1,4.36-1.5,7.13-1.256,9.276.21,1.868.973,3.3,2.782,5.158h31.2a8.446,8.446,0,0,0,2.675-5.369c.2-2.139-.229-4.735-1.149-9.073L35.075,21H29.082a1,1,0,0,1,0-2h6.76a1,1,0,0,1,.966.74l2.7,10.036q.007.026.013.052c.966,4.552,1.415,7.3,1.19,9.7a10.628,10.628,0,0,1-3.541,6.891A1,1,0,0,1,36.461,46.712Z" transform="translate(-0.381 -7.784)"/>
          <path id="패스_7881" data-name="패스 7881" class="cls-3" d="M34.3,15.743a2.232,2.232,0,0,1-2.237-2.222V9.246a4.845,4.845,0,0,0-4.876-4.8c-.112,0-.225,0-.337.011a4.953,4.953,0,0,0-4.539,5v4.071a2.237,2.237,0,0,1-4.474,0V9.246a9.129,9.129,0,0,1,2.75-6.535,9.39,9.39,0,0,1,13.2,0,9.129,9.129,0,0,1,2.75,6.535v4.276A2.232,2.232,0,0,1,34.3,15.743Zm-7.113-13.3a6.847,6.847,0,0,1,6.876,6.8v4.276a.238.238,0,0,0,.474,0V9.246a7.351,7.351,0,0,0-14.7,0v4.276a.238.238,0,0,0,.474,0V9.451a6.957,6.957,0,0,1,6.407-6.992C26.873,2.449,27.031,2.443,27.186,2.443Z" transform="translate(-7.186 -0.389)"/>
          <path id="패스_7882" data-name="패스 7882" class="cls-3" d="M28.411,53.627H12.535c-.174,0-4.288-.035-6.209-3.119C5.007,48.392,1.438,48.333,1.4,48.333a1,1,0,1,1,0-2c.191,0,4.7.035,6.622,3.118,1.34,2.151,4.48,2.176,4.511,2.176H28.411c.029,0,3.183-.044,4.512-2.176,1.92-3.082,6.43-3.118,6.621-3.118a1,1,0,0,1,0,2h0c-.036,0-3.6.04-4.926,2.175C32.7,53.591,28.585,53.627,28.411,53.627Z" transform="translate(-0.535 -18.421)"/>
          <path id="선_6" data-name="선 6" class="cls-3" d="M0,4.054a1,1,0,0,1-1-1V0A1,1,0,0,1,0-1,1,1,0,0,1,1,0V3.054A1,1,0,0,1,0,4.054Z" transform="translate(12.928 14.762)"/>
          <path id="패스_7883" data-name="패스 7883" class="cls-3" d="M17,29.21h4.186a1,1,0,0,1,.983.816l.98,5.225a3.933,3.933,0,0,1-1.219,3.644l-.727.667a3.384,3.384,0,0,1-4.625-.056l-.607-.584a3.978,3.978,0,0,1-1.12-3.716l1.173-5.215A1,1,0,0,1,17,29.21Zm3.356,2H17.8l-1,4.435a1.941,1.941,0,0,0,.556,1.836l.607.584a1.384,1.384,0,0,0,1.886.022l.727-.667a1.945,1.945,0,0,0,.605-1.8Z" transform="translate(-6.01 -11.757)"/>
        </g>
      </g>
    </g>
  </g>
</svg>
