<svg xmlns="http://www.w3.org/2000/svg" width="18" height="21.001" viewBox="0 0 18 21.001">
  <defs>
    <style>
      .cls-1 {
        fill: #888e94;
      }
    </style>
  </defs>
  <path id="패스_7695" data-name="패스 7695" class="cls-1" d="M93,23.767l4.95-4.784a6.608,6.608,0,0,0,0-9.568,7.174,7.174,0,0,0-9.9,0,6.608,6.608,0,0,0,0,9.568ZM93,26.5,86.636,20.35a8.494,8.494,0,0,1,0-12.3,9.222,9.222,0,0,1,12.728,0,8.494,8.494,0,0,1,0,12.3Zm0-10.369A1.934,1.934,0,1,0,91,14.2a1.967,1.967,0,0,0,2,1.933m0,1.933A3.868,3.868,0,1,1,97,14.2a3.935,3.935,0,0,1-4,3.866" transform="translate(-84 -5.5)"/>
</svg>
