<svg xmlns="http://www.w3.org/2000/svg" xmlns:xlink="http://www.w3.org/1999/xlink" width="80" height="80" viewBox="0 0 80 80">
  <defs>
    <style>
      .cls-1 {
        fill: none;
        stroke: #4a36b3;
      }

      .cls-2 {
        fill: #f7f7f7;
      }

      .cls-3 {
        clip-path: url(#clip-path);
      }

      .cls-4 {
        fill: #4a36b3;
      }
    </style>
    <clipPath id="clip-path">
      <rect id="사각형_280905" data-name="사각형 280905" class="cls-1" width="42" height="42"/>
    </clipPath>
  </defs>
  <g id="그룹_384064" data-name="그룹 384064" transform="translate(651 -3132)">
    <circle id="타원_38" data-name="타원 38" class="cls-2" cx="40" cy="40" r="40" transform="translate(-651 3132)"/>
    <g id="그룹_384036" data-name="그룹 384036" transform="translate(-631 3152)">
      <g id="그룹_384035" data-name="그룹 384035" class="cls-3" transform="translate(-1 -1)">
        <path id="패스_7899" data-name="패스 7899" class="cls-4" d="M28.9,62.257A1.858,1.858,0,0,1,27.048,60.4v-2.23a1,1,0,0,1,1.854-.521,1,1,0,0,1,1.854.521V60.4A1.858,1.858,0,0,1,28.9,62.257Z" transform="translate(-9.636 -20.89)"/>
        <path id="패스_7900" data-name="패스 7900" class="cls-4" d="M60.161,62.257A1.858,1.858,0,0,1,58.307,60.4v-2.23a1,1,0,0,1,1.854-.521,1,1,0,0,1,1.854.521V60.4A1.858,1.858,0,0,1,60.161,62.257Z" transform="translate(-21.494 -20.89)"/>
        <path id="패스_7901" data-name="패스 7901" class="cls-4" d="M48.768,36.169a1,1,0,0,1-1-1V30.46a1.741,1.741,0,0,0-1.733-1.745H33.808a1.741,1.741,0,0,0-1.733,1.745v4.709a1,1,0,0,1-2,0V30.46a3.743,3.743,0,0,1,3.733-3.745H46.035a3.743,3.743,0,0,1,3.733,3.745v4.709A1,1,0,0,1,48.768,36.169Z" transform="translate(-10.784 -9.425)"/>
        <path id="패스_7902" data-name="패스 7902" class="cls-4" d="M28.589,38.67h2.733a2.373,2.373,0,0,1,2.367,2.373v4.472h9.544V41.043A2.372,2.372,0,0,1,45.6,38.67h2.733A2.373,2.373,0,0,1,50.7,41.043V51.205a1,1,0,0,1-1,1H27.223a1,1,0,0,1-1-1V41.043A2.372,2.372,0,0,1,28.589,38.67Zm14.96,8.845H33.372a1.687,1.687,0,0,1-1.683-1.687V41.043a.37.37,0,0,0-.367-.373H28.589a.37.37,0,0,0-.366.373v9.162H48.7V41.043a.37.37,0,0,0-.367-.373H45.6a.37.37,0,0,0-.366.373v4.786A1.687,1.687,0,0,1,43.549,47.515Z" transform="translate(-9.323 -13.926)"/>
        <path id="선_28" data-name="선 28" class="cls-4" d="M11.316,1H0A1,1,0,0,1-1,0,1,1,0,0,1,0-1H11.316a1,1,0,0,1,1,1A1,1,0,0,1,11.316,1Z" transform="translate(23.422 28.928)"/>
        <path id="사각형_280904" data-name="사각형 280904" class="cls-4" d="M0-1H5.425a1,1,0,0,1,1,1V2.725a1,1,0,0,1-1,1H0a1,1,0,0,1-1-1V0A1,1,0,0,1,0-1ZM4.425,1H1v.725H4.425Z" transform="translate(1.625 37.643)"/>
        <path id="패스_7903" data-name="패스 7903" class="cls-4" d="M40.618,18.531H30.93a1,1,0,0,1-.985-1.175l.292-1.64a5.824,5.824,0,0,1,5.537-5.024,5.826,5.826,0,0,1,5.536,5.024l.292,1.641a1,1,0,0,1-.985,1.175Zm-8.494-2h7.3l-.083-.465a3.837,3.837,0,0,0-3.567-3.374,3.835,3.835,0,0,0-3.568,3.373Z" transform="translate(-10.729 -3.393)"/>
        <path id="패스_7904" data-name="패스 7904" class="cls-4" d="M5.058,37.815a1,1,0,0,1-1-1V9.954A9.944,9.944,0,0,1,13.971,0h3.294a9.8,9.8,0,0,1,6.028,2.052A10.023,10.023,0,0,1,26.8,7.231a1,1,0,0,1-1.925.544A7.948,7.948,0,0,0,17.264,2H13.971A7.942,7.942,0,0,0,6.058,9.954V36.815A1,1,0,0,1,5.058,37.815Z" transform="translate(-0.915 0.633)"/>
      </g>
    </g>
  </g>
</svg>
