<svg xmlns="http://www.w3.org/2000/svg" width="32" height="64" viewBox="0 0 32 64">
  <defs>
    <style>
      .cls-1 {
        fill: none;
        opacity: 0.5;
      }

      .cls-2 {
        fill: #4a36b3;
      }

      .cls-3 {
        fill: #c7ccd1;
      }
    </style>
  </defs>
  <g id="그룹_384489" data-name="그룹 384489" transform="translate(3146 -3336)">
    <g id="그룹_384486" data-name="그룹 384486" transform="translate(-3676 -99)">
      <rect id="사각형_280731" data-name="사각형 280731" class="cls-1" width="32" height="32" transform="translate(530 3435)"/>
      <path id="패스_7841" data-name="패스 7841" class="cls-2" d="M17,7.151a7.375,7.375,0,0,1,10.713.321,8.943,8.943,0,0,1,.307,11.583L17,31,5.978,19.055A8.945,8.945,0,0,1,6.285,7.472,7.376,7.376,0,0,1,17,7.151m8.874,2.308a4.915,4.915,0,0,0-7.137-.215L17,10.93,15.265,9.246a4.916,4.916,0,0,0-7.142.215,5.966,5.966,0,0,0-.249,7.668L17,27.018l9.126-9.889a5.965,5.965,0,0,0-.25-7.67" transform="translate(529 3433)"/>
    </g>
    <g id="그룹_384488" data-name="그룹 384488" transform="translate(-3145.887 3368)">
      <rect id="사각형_280731-2" data-name="사각형 280731" class="cls-1" width="32" height="32" transform="translate(-0.113)"/>
      <path id="패스_7841-2" data-name="패스 7841" class="cls-3" d="M17,7.151a7.375,7.375,0,0,1,10.713.321,8.943,8.943,0,0,1,.307,11.583L17,31,5.978,19.055A8.945,8.945,0,0,1,6.285,7.472,7.376,7.376,0,0,1,17,7.151m8.874,2.308a4.915,4.915,0,0,0-7.137-.215L17,10.93,15.265,9.246a4.916,4.916,0,0,0-7.142.215,5.966,5.966,0,0,0-.249,7.668L17,27.018l9.126-9.889a5.965,5.965,0,0,0-.25-7.67" transform="translate(-1 -2)"/>
    </g>
  </g>
</svg>
