<svg xmlns="http://www.w3.org/2000/svg" xmlns:xlink="http://www.w3.org/1999/xlink" width="80" height="80" viewBox="0 0 80 80">
  <defs>
    <style>
      .cls-1, .cls-2 {
        fill: none;
      }

      .cls-1 {
        stroke: #4a36b3;
      }

      .cls-3 {
        fill: #f7f7f7;
      }

      .cls-4 {
        clip-path: url(#clip-path);
      }

      .cls-5 {
        fill: #4a36b3;
      }

      .cls-6 {
        clip-path: url(#clip-path-2);
      }
    </style>
    <clipPath id="clip-path">
      <rect id="사각형_280859" data-name="사각형 280859" class="cls-1" width="40" height="44"/>
    </clipPath>
    <clipPath id="clip-path-2">
      <rect id="사각형_280860" data-name="사각형 280860" class="cls-2" width="40" height="46"/>
    </clipPath>
  </defs>
  <g id="그룹_384061" data-name="그룹 384061" transform="translate(646 -2819)">
    <circle id="타원_27" data-name="타원 27" class="cls-3" cx="40" cy="40" r="40" transform="translate(-646 2819)"/>
    <g id="그룹_383714" data-name="그룹 383714" transform="translate(-625.75 2837)">
      <g id="그룹_383711" data-name="그룹 383711" transform="translate(-0.25 0)">
        <g id="그룹_383710" data-name="그룹 383710" class="cls-4">
          <path id="패스_7889" data-name="패스 7889" class="cls-5" d="M7.33,36.577a1,1,0,0,1-.293-.044L.707,34.6a1,1,0,0,1-.674-1.213l6.8-25.635a1,1,0,0,1,1.933.513l-6.557,24.7,5.409,1.654a1,1,0,0,1-.292,1.957Z" transform="translate(-0.072 -2.694)"/>
          <path id="패스_7890" data-name="패스 7890" class="cls-5" d="M24.855,13.071a1,1,0,0,1-.951-.69L20.686,2.514l-1.323.81L18.026,9.1l2.71,1.6a1,1,0,1,1-1.017,1.722l-3.341-1.972a1,1,0,0,1-.466-1.087l1.6-6.9a1,1,0,0,1,.452-.627L20.722.147A1,1,0,0,1,22.195.69L25.806,11.76a1,1,0,0,1-.951,1.31Z" transform="translate(-5.085 -0.336)"/>
          <path id="패스_7891" data-name="패스 7891" class="cls-5" d="M35.127,12.63a1,1,0,0,1-.507-1.863L37.463,9.1,36.126,3.324l-2.4-1.471A1,1,0,0,1,34.766.147l2.761,1.69a1,1,0,0,1,.452.627l1.6,6.9a1,1,0,0,1-.469,1.088l-3.477,2.038A1,1,0,0,1,35.127,12.63Z" transform="translate(-10.564 -0.337)"/>
        </g>
      </g>
      <path id="패스_7892" data-name="패스 7892" class="cls-5" d="M23.96,22.671a1,1,0,0,1-.642-.234l-4.74-3.979a1,1,0,0,1,.04-1.564l5.393-4.07a1,1,0,0,1,1.2,1.6l-4.39,3.313L24.6,20.9a1,1,0,0,1-.643,1.766Z" transform="translate(-6.101 -4.702)"/>
      <path id="패스_7893" data-name="패스 7893" class="cls-5" d="M25.249,25.886a1,1,0,0,1-.625-1.782l8.078-6.45-4.37-3.4a1,1,0,1,1,1.228-1.579l5.372,4.179a1,1,0,0,1,.01,1.571l-9.07,7.241A1,1,0,0,1,25.249,25.886Z" transform="translate(-8.063 -4.7)"/>
      <g id="그룹_383713" data-name="그룹 383713" transform="translate(-0.25 -1)">
        <g id="그룹_383712" data-name="그룹 383712" class="cls-6">
          <path id="패스_7894" data-name="패스 7894" class="cls-5" d="M35.368,46.063H10.73a1,1,0,0,1-1-1l.145-38.1a1,1,0,0,1,.649-.933l5.163-1.935a1,1,0,0,1,.7,1.873L11.872,7.66l-.138,36.4H34.364l-.139-36.41-4.7-1.815a1,1,0,1,1,.72-1.866l5.336,2.061a1,1,0,0,1,.64.929l.146,38.1a1,1,0,0,1-1,1Z" transform="translate(-3.129 -0.686)"/>
          <path id="패스_7895" data-name="패스 7895" class="cls-5" d="M46.891,36.786a1,1,0,0,1-.308-1.951l5.562-1.8L45.59,8.261a1,1,0,1,1,1.933-.512l6.8,25.684a1,1,0,0,1-.658,1.207l-6.462,2.1A1,1,0,0,1,46.891,36.786Z" transform="translate(-14.463 -1.725)"/>
          <path id="패스_7896" data-name="패스 7896" class="cls-5" d="M24.447,44.754a1,1,0,0,1-1-1V19.881a1,1,0,0,1,.052-.317L29.378,2H23.254a1,1,0,0,1,0-2h7.513a1,1,0,0,1,.948,1.317L25.447,20.044v23.71A1,1,0,0,1,24.447,44.754Z" transform="translate(-7.091 0.623)"/>
          <path id="패스_7897" data-name="패스 7897" class="cls-5" d="M31.641,34.477a1.282,1.282,0,1,1-1.282-1.246,1.264,1.264,0,0,1,1.282,1.246" transform="translate(-8.933 -10.182)"/>
          <path id="패스_7898" data-name="패스 7898" class="cls-5" d="M31.641,42.368a1.282,1.282,0,1,1-1.282-1.246,1.264,1.264,0,0,1,1.282,1.246" transform="translate(-8.933 -12.827)"/>
          <path id="선_10" data-name="선 10" class="cls-5" d="M4.51,6.349a1,1,0,0,1-.765-.355L-.765.645A1,1,0,0,1-.645-.765a1,1,0,0,1,1.409.12L5.274,4.7A1,1,0,0,1,4.51,6.349Z" transform="translate(27.598 24.659)"/>
          <path id="선_11" data-name="선 11" class="cls-5" d="M0,6.349a1,1,0,0,1-.653-.243,1,1,0,0,1-.1-1.41L3.86-.653a1,1,0,0,1,1.41-.1,1,1,0,0,1,.1,1.41L.757,6A1,1,0,0,1,0,6.349Z" transform="translate(7.753 24.659)"/>
        </g>
      </g>
    </g>
  </g>
</svg>
