<svg xmlns="http://www.w3.org/2000/svg" width="32" height="64" viewBox="0 0 32 64">
  <defs>
    <style>
      .cls-1 {
        fill: none;
        opacity: 0.5;
      }

      .cls-2 {
        fill: #c7ccd1;
      }

      .cls-3 {
        fill: #4a36b3;
      }
    </style>
  </defs>
  <g id="그룹_384494" data-name="그룹 384494" transform="translate(-223 -3357)">
    <g id="Inquiry" transform="translate(223 3389)">
      <rect id="사각형_281014" data-name="사각형 281014" class="cls-1" width="32" height="32"/>
      <path id="exchange-dollar-line" class="cls-2" d="M10.855,18.8h7.333a.7.7,0,0,0,0-1.4H12.855a3.42,3.42,0,0,1-3.333-3.5,3.42,3.42,0,0,1,3.333-3.5h1.333V9h2.667v1.4h3.333v2.8H12.855a.7.7,0,0,0,0,1.4h5.333a3.5,3.5,0,0,1,0,7H16.855V23H14.188V21.6H10.855Z" transform="translate(0.479 -0.003)"/>
      <path id="chat-3-line" class="cls-2" d="M9.408,28.354,2,30l1.646-7.408a13.992,13.992,0,1,1,5.762,5.762ZM9.813,25.4l.915.489a11.192,11.192,0,1,0-4.613-4.613l.489.915-.917,4.125Z"/>
    </g>
    <g id="Inquiry-2" data-name="Inquiry" transform="translate(223 3357)">
      <rect id="사각형_281014-2" data-name="사각형 281014" class="cls-1" width="32" height="32"/>
      <path id="exchange-dollar-line-2" data-name="exchange-dollar-line" class="cls-3" d="M10.855,18.8h7.333a.7.7,0,0,0,0-1.4H12.855a3.42,3.42,0,0,1-3.333-3.5,3.42,3.42,0,0,1,3.333-3.5h1.333V9h2.667v1.4h3.333v2.8H12.855a.7.7,0,0,0,0,1.4h5.333a3.5,3.5,0,0,1,0,7H16.855V23H14.188V21.6H10.855Z" transform="translate(0.479 -0.003)"/>
      <path id="chat-3-line-2" data-name="chat-3-line" class="cls-3" d="M9.408,28.354,2,30l1.646-7.408a13.992,13.992,0,1,1,5.762,5.762ZM9.813,25.4l.915.489a11.192,11.192,0,1,0-4.613-4.613l.489.915-.917,4.125Z"/>
    </g>
  </g>
</svg>
