<svg xmlns="http://www.w3.org/2000/svg" width="20" height="40" viewBox="0 0 20 40">
  <defs>
    <style>
      .cls-1 {
        fill: #c7ccd1;
      }

      .cls-2 {
        fill: #6045e6;
      }
    </style>
  </defs>
  <g id="그룹_384299" data-name="그룹 384299" transform="translate(-200 -424)">
    <path id="패스_7702" data-name="패스 7702" class="cls-1" d="M4.112,3H21.888A1.112,1.112,0,0,1,23,4.112V21.888A1.112,1.112,0,0,1,21.888,23H4.112A1.112,1.112,0,0,1,3,21.888V4.112A1.112,1.112,0,0,1,4.112,3m1.11,17.778H20.778V5.222H5.222Z" transform="translate(197 421)"/>
    <path id="패스_7958" data-name="패스 7958" class="cls-2" d="M22.112,3H39.89A1.111,1.111,0,0,1,41,4.11V21.888A1.112,1.112,0,0,1,39.89,23H22.112A1.112,1.112,0,0,1,21,21.888V4.11A1.112,1.112,0,0,1,22.112,3m1.11,17.778H38.778V5.222H23.222Zm6.67-3.334L25.178,12.73l1.572-1.572L29.892,14.3l6.286-6.286,1.57,1.572Z" transform="translate(179 441)"/>
  </g>
</svg>
